<svg id="MotW_3RD" data-name="MotW 3RD" xmlns="http://www.w3.org/2000/svg" viewBox="0 0 590 590"><defs><style>.cls-1{fill:#b49a63;}.cls-2{fill:#f0cd84;}.cls-3{fill:#a45959;}.cls-4{fill:#18172a;}.cls-5{fill:#8e4949;}.cls-6{fill:#f0bc78;}.cls-7{fill:#f3c993;}.cls-8{fill:#feddb2;}.cls-9{fill:#806440;}.cls-10{fill:#b08a58;}.cls-11{fill:#fdc67e;}.cls-12{fill:#db7777;}</style></defs><path class="cls-1" d="M56.05,60.77V407a70,70,0,0,0,28.12,56.09l139,103.8a120,120,0,0,0,143.58,0l139-103.8A70,70,0,0,0,534,407V60.77A60.07,60.07,0,0,0,473.88.69H116.12A60.07,60.07,0,0,0,56.05,60.77Z"/><path class="cls-2" d="M68.06,406V62.71a50,50,0,0,1,50-50H471.94a50,50,0,0,1,50,50V406a60,60,0,0,1-24.11,48.08l-137,102.29a110,110,0,0,1-131.6,0l-137-102.29A60,60,0,0,1,68.06,406Z"/><path class="cls-2" d="M295,578.68a109.7,109.7,0,0,1-66.08-21.94l-137-102.3A60.75,60.75,0,0,1,67.59,406V62.71a50.53,50.53,0,0,1,50.47-50.47H471.94a50.53,50.53,0,0,1,50.47,50.47V406a60.75,60.75,0,0,1-24.3,48.45l-137,102.3A109.7,109.7,0,0,1,295,578.68ZM118.06,13.17A49.59,49.59,0,0,0,68.53,62.71V406a59.78,59.78,0,0,0,23.92,47.7l137,102.3a109.52,109.52,0,0,0,131,0l137-102.3A59.78,59.78,0,0,0,521.47,406V62.71a49.59,49.59,0,0,0-49.53-49.54Z"/><path class="cls-3" d="M472.41,48.93H117.59a15,15,0,0,0-15,15V400.42A35.8,35.8,0,0,0,117,429.11l51.74,38.62a32.73,32.73,0,0,0,32.64,3.74C228.16,459.82,260.37,453,295,453s66.84,6.79,93.67,18.44a32.75,32.75,0,0,0,32.65-3.74l51.73-38.62a35.8,35.8,0,0,0,14.38-28.69V64A15,15,0,0,0,472.41,48.93Z"/><path class="cls-4" d="M102.57,367.91v32.51A35.8,35.8,0,0,0,117,429.11l51.74,38.62a33,33,0,0,0,32.91,3.62C228.38,459.78,260.48,453,295,453s66.63,6.75,93.4,18.32a33,33,0,0,0,32.92-3.62l51.73-38.62a35.8,35.8,0,0,0,14.38-28.69V367.91Z"/><rect class="cls-5" x="337.92" y="48.93" width="32.29" height="318.98"/><rect class="cls-5" x="396.99" y="48.93" width="32.29" height="318.98"/><path class="cls-5" d="M472.41,48.93H456.05v319h31.38V64A15,15,0,0,0,472.41,48.93Z"/><rect class="cls-5" x="278.86" y="48.93" width="32.29" height="318.98"/><path class="cls-5" d="M134,48.93H117.59a15,15,0,0,0-15,15v304H134Z"/><rect class="cls-5" x="160.72" y="48.93" width="32.29" height="318.98"/><rect class="cls-5" x="219.79" y="48.93" width="32.29" height="318.98"/><path class="cls-6" d="M392.83,380.91H197.17a9.55,9.55,0,0,1-9.55,9.54v34.41a9.56,9.56,0,0,1,9.55,9.55H392.83a9.55,9.55,0,0,1,9.54-9.55V390.45A9.54,9.54,0,0,1,392.83,380.91Z"/><polygon class="cls-7" points="203.18 434.4 244.66 434.4 298.16 380.91 256.68 380.91 203.18 434.4"/><polygon class="cls-7" points="327.38 380.91 307.57 380.91 254.08 434.4 273.88 434.4 327.38 380.91"/><polygon class="cls-7" points="382.65 380.91 362.85 380.91 309.35 434.4 329.16 434.4 382.65 380.91"/><path class="cls-8" d="M392.83,380.91H197.17a9.55,9.55,0,0,1-9.55,9.54v34.41a9.61,9.61,0,0,1,3,.5l-.18-.06V393a12.46,12.46,0,0,0,9.21-9.21H390.3a12.46,12.46,0,0,0,9.21,9.21V425.3l-.17.06a9.48,9.48,0,0,1,3-.5V390.45A9.54,9.54,0,0,1,392.83,380.91Z"/><path class="cls-9" d="M392.83,434.41H197.17a9.56,9.56,0,0,0-9.55-9.55l2.87-2.52a12.45,12.45,0,0,1,9.21,9.2H390.3a12.45,12.45,0,0,1,9.21-9.2l2.86,2.52A9.55,9.55,0,0,0,392.83,434.41Z"/><path class="cls-4" d="M228.26,411.32a10.79,10.79,0,0,1-.86,4.18,8.89,8.89,0,0,1-3.65,4.28,11,11,0,0,1-5.9,1.58,10.78,10.78,0,0,1-5.84-1.6,9.48,9.48,0,0,1-3.75-4.34,10.26,10.26,0,0,1-.82-3.61.54.54,0,0,1,.62-.61h6.56a.59.59,0,0,1,.65.57,5.54,5.54,0,0,0,.53,1.85,2.17,2.17,0,0,0,2,1.14,2.25,2.25,0,0,0,2.05-1.14,5,5,0,0,0,.62-2.55,5.4,5.4,0,0,0-.58-2.58,2.34,2.34,0,0,0-2.13-1.23,2,2,0,0,0-1,.33c-.37.22-.88.58-1.54,1.07a.56.56,0,0,1-.41.16.49.49,0,0,1-.45-.29l-3.24-4.59a.78.78,0,0,1-.12-.41.49.49,0,0,1,.29-.45l6-3.89c.08,0,.11-.07.08-.14a.16.16,0,0,0-.16-.11h-8.28a.57.57,0,0,1-.62-.61V393a.57.57,0,0,1,.62-.61h18.28a.56.56,0,0,1,.61.61v6a.85.85,0,0,1-.37.77L223,402.84c-.14.11-.11.2.08.28a6.87,6.87,0,0,1,4.38,4.1A10.11,10.11,0,0,1,228.26,411.32Z"/><path class="cls-4" d="M245.35,420.58l-4.51-10.41a.25.25,0,0,0-.24-.16h-1.72a.18.18,0,0,0-.21.2v10.21a.56.56,0,0,1-.61.61h-6.48a.56.56,0,0,1-.61-.61V393a.56.56,0,0,1,.61-.61H244a10.16,10.16,0,0,1,4.9,1.14,8.17,8.17,0,0,1,3.27,3.22,9.54,9.54,0,0,1,1.17,4.78,8.4,8.4,0,0,1-1.33,4.73,7.76,7.76,0,0,1-3.67,3,.2.2,0,0,0-.12.29l5.2,10.81a1.68,1.68,0,0,1,.09.29.39.39,0,0,1-.17.33.66.66,0,0,1-.41.12h-6.88A.67.67,0,0,1,245.35,420.58Zm-6.68-21.43v4.79a.19.19,0,0,0,.21.21h3.85a3.12,3.12,0,0,0,2.13-.72,2.35,2.35,0,0,0,.82-1.86,2.41,2.41,0,0,0-.82-1.91,3.12,3.12,0,0,0-2.13-.72h-3.85A.19.19,0,0,0,238.67,399.15Z"/><path class="cls-4" d="M256.33,420.87a.61.61,0,0,1-.16-.45V393a.56.56,0,0,1,.61-.61h10.54a14.35,14.35,0,0,1,5.88,1.14,9.16,9.16,0,0,1,3.95,3.24,8.51,8.51,0,0,1,1.39,4.84v10.24a8.53,8.53,0,0,1-1.39,4.84,9.08,9.08,0,0,1-3.95,3.23,14.18,14.18,0,0,1-5.88,1.15H256.78A.61.61,0,0,1,256.33,420.87Zm7.75-6.44h3.52a2.87,2.87,0,0,0,2.3-1.08,4.51,4.51,0,0,0,.94-2.85v-7.62a4.31,4.31,0,0,0-.9-2.85,3,3,0,0,0-2.38-1.09h-3.48a.19.19,0,0,0-.21.21v15.08C263.87,414.37,263.94,414.43,264.08,414.43Z"/><path class="cls-4" d="M280.88,424.93l1.06-9.88a.55.55,0,0,1,.62-.57h5.61a.5.5,0,0,1,.45.18.61.61,0,0,1,.05.51L286,425.05a.61.61,0,0,1-.65.53h-3.9C281,425.58,280.82,425.36,280.88,424.93Z"/><path class="cls-4" d="M319.61,392.35H326a.56.56,0,0,1,.61.61v27.46a.56.56,0,0,1-.61.61h-6.48a.56.56,0,0,1-.61-.61V405.54c0-.11,0-.17-.08-.18s-.11,0-.17.1L315.88,410a.82.82,0,0,1-.74.41H312a.8.8,0,0,1-.73-.41l-2.79-4.55c-.06-.08-.11-.12-.16-.1s-.09.07-.09.18v14.88a.56.56,0,0,1-.61.61h-6.48a.56.56,0,0,1-.61-.61V393a.56.56,0,0,1,.61-.61h6.4a.79.79,0,0,1,.73.41l5.17,8.32q.12.24.24,0l5.17-8.32A.79.79,0,0,1,319.61,392.35Z"/><path class="cls-4" d="M330.57,420.27a4.08,4.08,0,0,1,0-5.55,3.86,3.86,0,0,1,6.62,2.79,3.91,3.91,0,0,1-6.62,2.76Z"/><path class="cls-4" d="M346.28,420.89a.58.58,0,0,1-.24-.39L337.92,393a.54.54,0,0,1,0-.2c0-.33.19-.49.58-.49h7a.61.61,0,0,1,.66.53l3.48,13.36c0,.08.07.13.12.14s.1,0,.13-.14l2.74-13.36a.64.64,0,0,1,.7-.53h6a.61.61,0,0,1,.66.53L363,406.24c0,.11.07.16.12.16s.1,0,.13-.16l3.07-13.36a.61.61,0,0,1,.66-.53h7a.59.59,0,0,1,.48.18.61.61,0,0,1,.06.51l-7.3,27.46a.61.61,0,0,1-.65.53H360a.64.64,0,0,1-.7-.53l-2.95-14.1c0-.08-.07-.12-.12-.12s-.1,0-.12.12l-2.58,14.06a.64.64,0,0,1-.66.57h-6.11A.75.75,0,0,1,346.28,420.89Z"/><path class="cls-4" d="M375.28,420.27a4.08,4.08,0,0,1,0-5.55,3.76,3.76,0,0,1,2.76-1.06,3.8,3.8,0,0,1,2.77,1.06,3.74,3.74,0,0,1,1.08,2.79,3.69,3.69,0,0,1-1.1,2.74,4,4,0,0,1-5.51,0Z"/><path class="cls-9" d="M363.27,143.25c-13.13-28.85-40.53-48.7-72.2-48.7s-59.07,19.85-72.2,48.7Z"/><path class="cls-6" d="M346.66,118.73a7.4,7.4,0,0,1,.42,2.22c0,8.76-25.7,13.76-57.41,13.76-30.32,0-55.14-4.39-57.25-12.62a87.83,87.83,0,0,0-13.55,21.16h144.4A87.53,87.53,0,0,0,346.66,118.73Z"/><rect class="cls-9" x="433.01" y="342.64" width="4.95" height="15.12"/><path class="cls-4" d="M439.12,358.93h-7.27V341.48h7.27Zm-4.94-2.33h2.62V343.81h-2.62Z"/><rect class="cls-9" x="428.63" y="336.14" width="13.71" height="6.5"/><rect class="cls-6" x="428.63" y="336.14" width="13.71" height="2.98"/><path class="cls-4" d="M443.5,343.81h-16V335h16Zm-13.71-2.33h11.39V337.3H429.79Z"/><rect class="cls-9" x="395.68" y="278.19" width="26.03" height="80.27"/><rect class="cls-6" x="396.51" y="279.3" width="8.61" height="78.1"/><rect class="cls-10" x="413.33" y="279.3" width="7.11" height="78.1"/><path class="cls-9" d="M239.06,288.39a2.09,2.09,0,0,0,3.87-.48c3.78-15.29,17.64-58.06,64.14-58.06,41.7,0,62.77,44,62.77,44l4.93-1.68s-9.82-55.28-67-55.28c-69,0-68.74,71.55-68.74,71.55Z"/><path class="cls-10" d="M307.07,229.85c41.7,0,62.77,44,62.77,44l3.55-1.21c-5-15.06-20.93-47.88-65-47.88-55.78,0-66.3,46.72-68.28,64.65a2.09,2.09,0,0,0,2.79-1.45C246.71,272.62,260.57,229.85,307.07,229.85Z"/><path class="cls-4" d="M240.89,290.66a3.23,3.23,0,0,1-2.86-1.72l-.14-.25v-.29c0-.33.11-33.29,21.31-54.58,12-12,28.35-18.14,48.6-18.14,30,0,47,15.3,55.87,28.13a78.27,78.27,0,0,1,12.24,28.1l.18,1-6.85,2.35-.45-.93c-.21-.43-21.26-43.3-61.72-43.3-18.26,0-50.72,7.43-63,57.18a3.24,3.24,0,0,1-2.75,2.45A3,3,0,0,1,240.89,290.66Zm-.66-2.61a.94.94,0,0,0,.79.28.9.9,0,0,0,.78-.7c4.38-17.72,19.51-58.95,65.27-58.95,38.54,0,60,37.3,63.34,43.7l3-1a78.8,78.8,0,0,0-11.71-26.28C349.2,227.11,331.07,218,307.8,218c-19.61,0-35.4,5.86-46.93,17.44C241.49,254.89,240.3,284.54,240.23,288.05Z"/><rect class="cls-4" x="262.4" y="217.48" width="19.22" height="6.08"/><path class="cls-9" d="M264.56,221.48a4,4,0,0,0-4.39-4,30.27,30.27,0,0,0-18.41,8.85c-16,16.1-15.85,48.89-15.76,66.5v0a3.16,3.16,0,0,0,3.16,3.14h1.68a3.16,3.16,0,0,0,3.16-3.17v0c-.08-15.28-.24-47.08,13.43-60.82A22.12,22.12,0,0,1,261,225.46a4,4,0,0,0,3.59-4Z"/><path class="cls-6" d="M229.34,295.92l.81,0c-.09-17.61-1.07-50.41,14.95-66.51a30.27,30.27,0,0,1,18.41-8.85,4.21,4.21,0,0,1,.94,0,4,4,0,0,0-4.28-3.05,30.27,30.27,0,0,0-18.41,8.85c-16,16.1-15.85,48.89-15.76,66.5v0a3.16,3.16,0,0,0,3.16,3.14h.18Z"/><path class="cls-4" d="M230.84,297.18h-1.68a4.32,4.32,0,0,1-4.32-4.29c-.09-17.82-.26-50.92,16.1-67.36a31.39,31.39,0,0,1,19.1-9.18A5,5,0,0,1,264,217.6a5.17,5.17,0,0,1-2.87,9,21,21,0,0,0-12.85,6.2c-13.34,13.4-13.18,44.87-13.1,60a4.32,4.32,0,0,1-4.32,4.38Zm29.78-78.54-.32,0a29.11,29.11,0,0,0-17.71,8.51c-15.68,15.76-15.51,48.23-15.42,65.67a2,2,0,0,0,2,2h1.68a2,2,0,0,0,1.41-.59,2,2,0,0,0,.58-1.41c-.08-15.49-.24-47.6,13.78-61.69a23.18,23.18,0,0,1,14.23-6.87,2.84,2.84,0,0,0,1.59-5A2.69,2.69,0,0,0,260.62,218.64Z"/><path class="cls-4" d="M244.41,291.58h-.06l-40.95-1.24a2,2,0,0,1-1.94-2.06,2,2,0,0,1,2.06-1.93l40.95,1.23a2,2,0,0,1-.06,4Z"/><polygon class="cls-9" points="311.57 283.86 272.24 263.36 268.13 272.9 304.08 295.24 311.57 283.86"/><path class="cls-4" d="M304.43,296.83l-37.76-23.47,5-11.61,41.59,21.67ZM269.6,272.44l34.13,21.21,6.16-9.36L272.81,265Z"/><polygon class="cls-6" points="272.33 268.33 273.49 266.44 308.38 284.69 307.22 286.59 272.33 268.33"/><polygon class="cls-9" points="306.11 286.26 267.49 308.07 273.25 316.72 311.57 298.75 306.11 286.26"/><path class="cls-4" d="M272.84,318.2l-7-10.53,40.84-23.06,6.43,14.71Zm-3.69-9.73,4.51,6.77,36.39-17.07-4.49-10.26Z"/><path class="cls-9" d="M303.48,337.86l-1.35-.06-1.37,3.56L297.5,341l-.54-3.78c-.44-.07-.89-.15-1.33-.24l-1.82,3.36-3.19-.79,0-3.8-1.3-.42-2.23,3.08-3.06-1.2.46-3.78c-.43-.19-.83-.39-1.23-.58l-2.62,2.77L277.72,334l.95-3.7-1.13-.73-3,2.41-2.65-1.95,1.43-3.54c-.34-.27-.68-.56-1-.88l-3.26,2-2.37-2.28,1.88-3.33c-.32-.34-.63-.67-.92-1l-3.48,1.56L262.12,320l2.29-3.06c-.26-.36-.52-.74-.77-1.1L260,317l-1.7-2.82,2.67-2.72c-.21-.39-.42-.8-.62-1.21l-3.77.61-1.31-3,3-2.34c-.17-.43-.32-.86-.47-1.28l-3.8.1-.91-3.16,3.29-1.94c-.11-.44-.2-.88-.29-1.32l-3.8-.4-.49-3.25,3.51-1.49c0-.44-.08-.89-.11-1.35l-3.72-.89-.06-3.28,3.68-1,.06-1.35-3.57-1.36.37-3.27,3.78-.54c.07-.44.15-.89.24-1.33l-3.36-1.82.79-3.19,3.8,0c.13-.43.27-.86.41-1.3l-3.08-2.23,1.2-3.06,3.79.46c.19-.42.38-.83.58-1.23l-2.77-2.62,1.58-2.88,3.7.95c.24-.37.48-.75.74-1.13l-2.41-3,1.95-2.64,3.54,1.42c.27-.34.56-.68.87-1l-2-3.26,2.28-2.37,3.33,1.88c.34-.32.67-.63,1-.92l-1.56-3.48,2.57-2.05,3.05,2.3q.56-.41,1.11-.78L276,242.67l2.81-1.7,2.73,2.67c.39-.21.79-.42,1.2-.62l-.6-3.77,3-1.31,2.35,3,1.28-.47-.1-3.8,3.15-.91,1.95,3.29,1.32-.29.39-3.8,3.25-.49,1.5,3.52q.66-.07,1.35-.12l.89-3.72,3.28-.06,1,3.68,1.35.06,1.36-3.57,3.27.37.54,3.78,1.33.24,1.82-3.36,3.19.79,0,3.8,1.3.42,2.23-3.08,3.06,1.2-.46,3.78c.42.19.83.38,1.23.58l2.62-2.77,2.87,1.59-.95,3.7c.38.23.76.47,1.14.73l3-2.41,2.64,1.95-1.42,3.54c.33.27.68.56,1,.87l3.26-2,2.36,2.28-1.87,3.33c.32.34.62.67.91,1l3.49-1.56,2.05,2.57-2.3,3q.4.56.78,1.11l3.66-1.09,1.69,2.82-2.66,2.72c.21.39.41.79.62,1.21l3.77-.61,1.31,3-3,2.34c.16.43.32.86.46,1.28l3.8-.1.91,3.16-3.28,1.94c.1.44.2.88.29,1.32l3.8.39.49,3.25L355,282.9c.05.44.08.89.11,1.35l3.72.89.07,3.28-3.69,1q0,.69-.06,1.35l3.57,1.36-.36,3.27-3.78.54c-.08.44-.15.89-.24,1.33l3.36,1.82-.79,3.19-3.8,0c-.13.43-.27.86-.42,1.3l3.08,2.23-1.2,3.06-3.78-.46c-.19.42-.39.83-.58,1.23l2.77,2.62-1.59,2.87-3.7-.95c-.23.39-.48.77-.73,1.14l2.41,3L347.37,321l-3.54-1.42c-.28.34-.57.68-.88,1l2,3.26-2.28,2.37-3.33-1.88-1,.92,1.56,3.48-2.57,2.05-3.06-2.3q-.55.4-1.11.78l1.1,3.66-2.82,1.7L328.73,332c-.39.21-.79.41-1.21.62l.6,3.77-3,1.31-2.34-3c-.43.16-.86.32-1.29.46l.11,3.8-3.16.91-1.94-3.28-1.32.29-.4,3.8-3.25.49-1.5-3.52c-.43.05-.88.08-1.34.12l-.89,3.72-3.28.06Zm1-83.89a33.84,33.84,0,0,0-33.19,34.49,34,34,0,0,0,33.82,33.19h.67A33.86,33.86,0,0,0,339,287.16,34,34,0,0,0,305.13,254Z"/><path class="cls-6" d="M274.54,273.27l-18.65,5.34-.18,1-3.78.54-.37,3.27,3.57,1.36-.06,1.35-3.68,1,0,1.9,20.13-5.76A33.53,33.53,0,0,1,274.54,273.27Z"/><path class="cls-6" d="M254,304.28l3.8-.1c.15.42.3.85.47,1.28l-3,2.34,1.31,3,3.77-.61c.2.41.41.82.62,1.21l-2.67,2.72L260,317l3.66-1.09c.25.36.51.74.77,1.1L262.12,320l2.05,2.57,3.48-1.56c.29.33.6.66.92,1l-1.88,3.33,2.37,2.28,3.26-2c.35.32.69.61,1,.88l-1.43,3.54,2.65,1.95,3-2.41,1.13.73-.95,3.7,2.88,1.59,2.62-2.77c.4.19.8.39,1.23.58l-.46,3.78,3.06,1.2,2.23-3.08,1.3.42,0,3.8,3.19.79,1.82-3.36c.44.09.89.17,1.33.24l.54,3.78,3.26.36,1.37-3.56,1.35.06,1,3.68,3.28-.06.89-3.72c.46,0,.91-.07,1.34-.12l1.5,3.52,3.25-.49.4-3.8,1.32-.29,1.94,3.28,3.16-.91-.11-3.8c.43-.14.86-.3,1.29-.46l2.34,3,3-1.31-.6-3.77c.42-.21.82-.41,1.21-.62l2.72,2.67,2.82-1.7-1.1-3.66q.56-.37,1.11-.78l3.06,2.3,2.57-2.05-1.56-3.48,1-.92,3.33,1.88,2.28-2.37-2-3.26c.31-.35.6-.69.88-1l3.54,1.42,1.95-2.64-2.41-3c.25-.37.5-.75.73-1.14l3.7.95,1.59-2.87-2.77-2.62c.19-.4.39-.81.58-1.23l3.78.46,1.2-3.06-3.08-2.23c.15-.44.29-.87.42-1.3l3.8,0,.79-3.19-3.36-1.82c.09-.44.16-.89.24-1.33l3.78-.54.36-3.27-3.57-1.36q0-.66.06-1.35l3.69-1-.07-3.28-3.72-.89c0-.46-.06-.91-.11-1.35l3.52-1.5-.49-3.25-3.8-.39c-.09-.44-.19-.88-.29-1.32l3.28-1.94-.91-3.16-3.8.1c-.14-.42-.3-.85-.46-1.28l3-2.34-.6-1.38L335,272a33.81,33.81,0,0,1-29.22,49.66h-.67a34,34,0,0,1-33.74-31.47L252,295.72l.26,1.74,3.8.4c.09.44.18.88.29,1.32l-3.29,1.94Z"/><path class="cls-6" d="M331.17,266.3l20.21-5.78-1.12-1.86-3.66,1.09q-.37-.56-.78-1.11l2.3-3L346.07,253l-3.49,1.56c-.17-.2-.36-.4-.55-.61l-18.73,5.36A34.43,34.43,0,0,1,331.17,266.3Z"/><path class="cls-10" d="M269.06,327.65l3.26-2c.35.32.69.61,1,.88l-1.43,3.54,2.65,1.95,3-2.41,1.13.73-.95,3.7,2.88,1.59,2.62-2.77c.4.19.8.39,1.23.58l-.46,3.78,3.06,1.2,2.23-3.08,1.3.42,0,3.8,3.19.79,1.82-3.36c.44.09.89.17,1.33.24l.54,3.78,3.26.36,1.37-3.56,1.35.06,1,3.68,3.28-.06.89-3.72c.46,0,.91-.07,1.34-.12l1.5,3.52,3.25-.49.4-3.8,1.32-.29,1.94,3.28,3.16-.91-.11-3.8c.43-.14.86-.3,1.29-.46l2.34,3,3-1.31-.6-3.77c.42-.21.82-.41,1.21-.62l2.72,2.67,2.82-1.7-1.1-3.66q.56-.37,1.11-.78l3.06,2.3,2.57-2.05-1.56-3.48,1-.92,3.33,1.88,2.28-2.37-2-3.26c.31-.35.6-.69.88-1l3.54,1.42,1.95-2.64-2.41-3c.25-.37.5-.75.73-1.14l3.7.95,1.59-2.87-2.77-2.62c.19-.4.39-.81.58-1.23l3.78.46,1.2-3.06-3.08-2.23c.15-.44.29-.87.42-1.3l3.8,0,.79-3.19-3.36-1.82c.09-.44.16-.89.24-1.33l3.78-.54.36-3.27-3.57-1.36q0-.66.06-1.35l3.69-1L358.8,286l-20.05,5.7a33.87,33.87,0,0,1-33,30h-.67a33.84,33.84,0,0,1-26.49-12.9l-20.13,5.72L260,317l3.66-1.09c.25.36.51.74.77,1.1L262.12,320l2.05,2.57,3.48-1.56c.29.33.6.66.92,1l-1.88,3.33Z"/><path class="cls-4" d="M305,235l1,3.65c.9,0,1.8.06,2.69.12l1.35-3.54.91.11.92.1.53,3.75c.89.13,1.78.29,2.65.47l1.8-3.33.9.22.89.22,0,3.77c.87.25,1.73.53,2.58.82l2.21-3,.85.34.86.33-.45,3.75c.82.37,1.64.75,2.44,1.15l2.6-2.74.8.44.81.44-.94,3.67c.77.47,1.52.95,2.26,1.46l2.94-2.39.75.54.74.55-1.41,3.51c.7.56,1.38,1.14,2.05,1.74l3.23-2,.66.63.66.64-1.86,3.3c.63.65,1.24,1.31,1.83,2l3.45-1.54.57.72.58.72-2.28,3c.53.72,1,1.45,1.54,2.21l3.63-1.09.48.79.47.79-2.64,2.7c.43.79.84,1.59,1.24,2.4l3.73-.6.37.84.37.85-3,2.32c.33.84.64,1.69.92,2.55l3.77-.11.25.89.26.88L352.82,276c.21.87.41,1.74.58,2.63l3.76.39.14.91.14.91L354,282.31c.1.89.17,1.79.23,2.69l3.68.88,0,.92,0,.92-3.65,1c0,.9-.06,1.8-.12,2.69l3.53,1.35-.1.91-.1.92-3.75.53c-.13.89-.29,1.78-.47,2.66l3.33,1.8-.22.89-.23.89-3.76,0c-.25.87-.53,1.73-.83,2.58l3.06,2.21-.34.86-.33.85-3.76-.45c-.36.82-.74,1.64-1.14,2.44l2.74,2.6-.44.8-.45.81-3.66-.94c-.47.77-.95,1.52-1.46,2.27l2.39,2.94-.55.74-.54.74-3.51-1.41c-.56.7-1.15,1.38-1.74,2.05l2,3.23-.64.66-.64.67-3.3-1.86c-.64.62-1.3,1.23-2,1.82l1.54,3.45-.72.57-.72.58-3-2.28c-.72.54-1.46,1-2.21,1.54l1.08,3.63-.78.48-.79.47-2.7-2.64c-.79.43-1.59.84-2.4,1.24l.6,3.73-.85.37-.84.37-2.32-3c-.84.33-1.69.64-2.55.92l.11,3.77-.89.25-.88.26-1.93-3.26c-.87.22-1.75.41-2.63.58l-.39,3.76L313,340l-.91.14-1.49-3.49c-.88.1-1.78.18-2.68.23l-.88,3.68-.92,0-.92,0-1-3.65c-.9,0-1.8-.06-2.69-.12l-1.35,3.54-.92-.11-.91-.1-.53-3.75c-.9-.13-1.78-.29-2.66-.47l-1.8,3.33-.89-.22-.89-.22,0-3.77c-.87-.25-1.73-.53-2.58-.82l-2.21,3-.86-.34-.85-.33.45-3.76c-.83-.36-1.64-.74-2.44-1.14l-2.6,2.74-.81-.44-.8-.44.94-3.67c-.77-.47-1.53-.95-2.27-1.46l-2.94,2.39-.74-.54-.74-.55,1.41-3.51c-.7-.56-1.39-1.14-2.06-1.74l-3.22,2-.67-.64-.66-.63,1.86-3.3c-.62-.65-1.23-1.31-1.82-2l-3.45,1.54-.58-.72-.57-.72,2.28-3c-.54-.72-1.05-1.45-1.55-2.21l-3.62,1.09-.48-.79-.47-.79,2.64-2.7c-.44-.79-.85-1.59-1.24-2.4l-3.73.6-.37-.84-.37-.85,3-2.32c-.33-.84-.64-1.69-.92-2.55l-3.77.11-.25-.89-.26-.88,3.26-1.93c-.22-.87-.41-1.74-.58-2.63l-3.76-.39-.14-.91-.14-.91,3.48-1.48c-.1-.89-.17-1.79-.22-2.69l-3.69-.88v-.92l0-.92,3.65-1c0-.9.05-1.8.12-2.69l-3.54-1.35.1-.91.11-.92,3.74-.53c.14-.89.3-1.78.48-2.66l-3.33-1.8.22-.89.22-.89,3.77,0c.25-.87.53-1.73.82-2.58l-3-2.21.33-.86.34-.85,3.75.45c.36-.83.74-1.64,1.15-2.44l-2.75-2.6.45-.81.44-.8,3.67.94c.46-.77,1-1.52,1.46-2.27l-2.39-2.94.54-.74.55-.74,3.51,1.41c.56-.7,1.14-1.38,1.74-2.05l-2-3.23.63-.66.64-.67,3.3,1.86c.65-.62,1.31-1.23,2-1.82l-1.54-3.45.72-.57.71-.58,3,2.28c.73-.54,1.46-1.05,2.21-1.55l-1.08-3.62.79-.48.79-.47,2.7,2.64c.78-.43,1.58-.85,2.4-1.24l-.6-3.73.84-.37.84-.37,2.33,3c.84-.33,1.69-.64,2.55-.92l-.11-3.77.88-.25.89-.26,1.92,3.26c.87-.22,1.75-.41,2.64-.58l.39-3.76.91-.14.91-.14,1.48,3.48c.89-.09,1.79-.17,2.69-.22l.88-3.69h.92l.92,0m.07,87.56h.69a34.78,34.78,0,0,0-.66-69.55h-.68a34.78,34.78,0,0,0,.65,69.55m1.34-89.46-1.45,0-.92,0-.92,0-1.45,0-.33,1.41-.56,2.35h0l-.94-2.22-.57-1.33-1.43.22-.91.13-.91.14-1.43.22-.15,1.44-.25,2.4h0L293,235.9l-.74-1.25-1.39.41-.88.25-.89.26-1.39.4,0,1.44.07,2.4h0l-1.48-1.89-.89-1.14-1.32.58-.85.37-.84.37-1.33.58.23,1.42.38,2.38h0L280,240.81l-1-1-1.24.75-.78.47-.79.48-1.24.74.41,1.39L276,246h0L274,244.5l-1.16-.87-1.13.9-.72.58-.72.57-1.13.9.59,1.32,1,2.21h0l-2.1-1.18-1.26-.71-1,1-.64.66-.64.66-1,1,.75,1.23,1.27,2h0l-2.24-.9-1.34-.54-.86,1.16-.54.74-.55.74-.86,1.17.92,1.12,1.52,1.88h0l-2.34-.6-1.4-.36-.7,1.27-.45.8-.44.81-.7,1.26,1.05,1,1.75,1.65h0l-2.4-.29-1.43-.17-.53,1.34-.34.86-.33.86-.53,1.34,1.17.85,1.95,1.41h0l-2.4,0h-1.44l-.35,1.41-.22.89-.22.9-.35,1.4,1.27.69,2.12,1.15h0l-2.39.34-1.43.21-.16,1.43-.1.92-.1.91-.17,1.44,1.36.52,2.25.86h0l-2.33.65-1.39.39,0,1.45,0,.92v.92l0,1.44,1.41.34,2.35.56h0l-2.22.95-1.33.57.21,1.43.14.91.14.91.22,1.43,1.43.15,2.4.25h0L253.21,300l-1.25.74.4,1.39.26.88.25.89.41,1.39,1.44-.05,2.4-.06h0l-1.88,1.48-1.14.9.58,1.32.37.84.37.85.57,1.32,1.43-.23,2.38-.38h0L258.12,313l-1,1,.74,1.23.48.79.48.79.74,1.24,1.39-.41,2.32-.69h0l-1.45,1.93-.87,1.16.9,1.13.57.72.58.72.9,1.13,1.32-.59,2.2-1h0l-1.19,2.1-.71,1.26,1.05,1,.66.64.66.64,1,1,1.24-.76,2.05-1.26h0l-.9,2.24-.54,1.34,1.16.86.74.55.74.55,1.17.85,1.12-.91,1.88-1.52h0l-.6,2.34-.36,1.4,1.26.7.81.45.81.44,1.26.7,1-1.05,1.65-1.75h0l-.29,2.39-.17,1.44,1.34.53.86.33.86.34,1.34.53.85-1.18,1.41-1.94h0l0,2.4v1.44l1.41.35.89.22.89.22,1.41.35.69-1.27,1.14-2.13h0l.34,2.39.2,1.44,1.44.16.92.1.91.1,1.44.16.51-1.35.87-2.26h0l.65,2.33.39,1.4,1.45,0,.92,0,.92,0,1.44,0,.34-1.41.56-2.35h0l.95,2.22.57,1.33,1.43-.22.91-.13.91-.14,1.43-.22.15-1.44.24-2.4h0l1.23,2.08L318,341l1.39-.4.88-.25.88-.26,1.39-.4,0-1.44-.06-2.4h0l1.48,1.89.89,1.14,1.33-.58.84-.37.85-.37,1.32-.58-.23-1.42-.38-2.38h0l1.72,1.69,1,1,1.24-.75.79-.47.79-.48,1.24-.74L335,332l-.69-2.32h0l1.93,1.45,1.16.87,1.13-.9.72-.58.72-.57,1.13-.9-.59-1.32-1-2.21h0l2.11,1.18,1.26.71,1-1,.64-.66.64-.66,1-1.05-.76-1.23-1.26-2.05h0l2.24.9,1.34.54.86-1.16.55-.74.54-.74.86-1.17-.91-1.12-1.52-1.88h0l2.34.6,1.4.36.7-1.27.44-.8.45-.81.7-1.26-1.05-1-1.75-1.65h0l2.39.29,1.44.17.53-1.35.33-.85.34-.86.53-1.35-1.18-.84-1.94-1.41v0l2.39,0,1.45,0,.35-1.4.22-.89.22-.9.35-1.4-1.28-.69-2.12-1.15h0l2.39-.34,1.43-.21.17-1.43.1-.92.1-.91.16-1.44-1.35-.52-2.26-.86h0l2.33-.65,1.39-.39,0-1.45,0-.92,0-.92,0-1.44-1.4-.34-2.36-.56h0l2.23-.95,1.33-.57-.22-1.43-.14-.91-.13-.91-.22-1.43-1.44-.15-2.4-.25h0l2.08-1.23,1.24-.74-.4-1.39-.25-.88-.26-.89-.4-1.39-1.45,0-2.39.07h0L355,269l1.14-.9-.58-1.32-.37-.84-.37-.85-.58-1.32-1.43.23-2.38.38h0l1.69-1.72,1-1-.75-1.24-.47-.78-.48-.79-.75-1.24-1.38.41-2.32.69h0l1.45-1.93.87-1.16-.9-1.13-.58-.72-.57-.72-.9-1.13-1.32.59-2.21,1h0l1.18-2.1.71-1.26-1-1-.66-.64-.67-.64-1-1-1.23.76L338,248.82h0l.9-2.24.54-1.35-1.17-.85-.74-.55-.74-.55-1.16-.85-1.12.91-1.88,1.52h0l.6-2.34.36-1.4-1.27-.7-.8-.45-.81-.44-1.27-.7-1,1-1.66,1.75h0l.29-2.39.17-1.44-1.35-.53-.85-.33-.86-.34-1.35-.53-.85,1.17-1.4,1.95h0l0-2.4,0-1.44-1.4-.35-.89-.22-.9-.22-1.4-.35-.69,1.27-1.15,2.13h0l-.34-2.38-.21-1.44-1.44-.16-.91-.1-.91-.1-1.44-.16-.52,1.35-.86,2.26h0l-.65-2.33-.39-1.4Zm-1.34,87.59a32.91,32.91,0,0,1-.61-65.81h.64a32.91,32.91,0,0,1,.62,65.81Z"/><path class="cls-9" d="M298,243.75V350.31h31.29V322.4a181.49,181.49,0,0,0-11.85-64.48L312,243.75Z"/><polygon class="cls-6" points="302.04 350.31 298.58 350.31 299.17 244.91 302.04 247.57 302.04 350.31"/><polygon class="cls-8" points="302.02 247.57 299.17 244.91 312.64 244.91 312.64 247.57 302.02 247.57"/><path class="cls-4" d="M330.45,351.48H296.84V242.58h16l5.68,14.93a181.72,181.72,0,0,1,11.93,64.89Zm-31.28-2.33h28.95V322.4a179.55,179.55,0,0,0-11.77-64.06l-5.11-13.43H299.17Z"/><rect class="cls-9" x="394.26" y="150.85" width="27.52" height="7.18"/><rect class="cls-6" x="395.44" y="151.94" width="10.58" height="5.33"/><rect class="cls-10" x="413.33" y="151.94" width="7.26" height="5.33"/><path class="cls-4" d="M422.94,159.19H393.09v-9.51h29.85Zm-27.52-2.33h25.19V152H395.42Z"/><path class="cls-4" d="M213.8,139h0a2.39,2.39,0,0,1,2.39,2.39v41.82a0,0,0,0,1,0,0h-4.77a0,0,0,0,1,0,0V141.34A2.39,2.39,0,0,1,213.8,139Z"/><path class="cls-4" d="M380.13,139h0a2.39,2.39,0,0,1,2.39,2.39v52a0,0,0,0,1,0,0h-4.77a0,0,0,0,1,0,0v-52A2.39,2.39,0,0,1,380.13,139Z"/><path class="cls-4" d="M399.51,122.36h0a2.39,2.39,0,0,1,2.39,2.39v52a0,0,0,0,1,0,0h-4.77a0,0,0,0,1,0,0v-52A2.39,2.39,0,0,1,399.51,122.36Z" transform="translate(549.08 -249.94) rotate(90)"/><rect class="cls-9" x="184.38" y="184.05" width="34.01" height="9.33"/><rect class="cls-6" x="184.38" y="184.05" width="34.01" height="3.36"/><path class="cls-4" d="M219.55,194.54H183.22V182.88h36.33Zm-34-2.33h31.68v-7H185.55Z"/><rect class="cls-9" x="218.44" y="348.31" width="159.87" height="10.15"/><rect class="cls-6" x="218.44" y="348.31" width="159.87" height="4.58"/><path class="cls-4" d="M379.47,359.62H217.28V347.15H379.47ZM219.61,357.3H377.15v-7.82H219.61Z"/><polygon class="cls-4" points="298.58 178.05 225.1 178.05 251.96 211.47 298.58 211.47 345.2 211.47 372.05 178.05 298.58 178.05"/><path class="cls-4" d="M365.08,144.41h-148l.75-1.65c13.87-30.45,41.94-49.37,73.26-49.37s59.39,18.92,73.26,49.37ZM220.7,142.08H361.44c-13.73-28.65-40.54-46.36-70.37-46.36S234.43,113.43,220.7,142.08Z"/><rect class="cls-4" x="220.88" y="157.27" width="152.59" height="6.85"/><ellipse class="cls-9" cx="243.99" cy="135.13" rx="7.71" ry="4.44" transform="translate(-30.88 182.45) rotate(-38.75)"/><ellipse class="cls-9" cx="224.51" cy="136.4" rx="7.71" ry="1.93" transform="translate(3.06 277.72) rotate(-63.82)"/><path class="cls-4" d="M254.79,115l-1-1.3c-1.39-1.72-4.79-.47-7.43,1.66a12,12,0,0,0-3,3.4c-1.08,1.92-.58,3-.19,3.5l1,1.29a2.36,2.36,0,0,0,1.94.82,5.2,5.2,0,0,0,1.52-.25,12.47,12.47,0,0,0,4-2.22C254.23,119.74,256.17,116.69,254.79,115Z"/><ellipse class="cls-9" cx="248.43" cy="117.95" rx="5.79" ry="2.34" transform="translate(-19.05 181.87) rotate(-38.84)"/><path class="cls-6" d="M245.81,117.16c-1.72,1.75-2.56,3.59-1.89,4.42.81,1,3.49.2,6-1.81a11.31,11.31,0,0,0,2.74-3.08C250.28,118,248,118.51,245.81,117.16Z"/><path class="cls-4" d="M228.9,129.86a1.34,1.34,0,0,0-.59-.83l-2.23-1.37c-1.23-.74-3.07.87-5.48,4.79-.65,1.06-2.75,4.64-2.37,6.2a1.32,1.32,0,0,0,.59.83l2.23,1.38a1.27,1.27,0,0,0,.63.17c1.19,0,2.82-1.67,4.85-5C227.19,135,229.29,131.42,228.9,129.86Z"/><path class="cls-6" d="M225.55,128.54c-.54-.32-2.36,1.67-4.07,4.45s-2.65,5.29-2.11,5.61,2.35-1.67,4.06-4.45S226.09,128.87,225.55,128.54Z"/><path class="cls-9" d="M248.4,120.83l1.57-3.18-2.14-.51-3.64,4.67C245,122.29,246.64,121.89,248.4,120.83Z"/><path class="cls-9" d="M225.55,128.54c-.54-.32-2.36,1.67-4.07,4.45-.28.46-.54.91-.77,1.35s1.75.67,4.11-3.42c.27-.47.54-.91.78-1.35S225.73,128.65,225.55,128.54Z"/><path class="cls-4" d="M259.45,103.16l-1-1.75c-1.28-2.19-6.07.46-7,1a15.37,15.37,0,0,0-3.37,2.56c-1.12,1.19-1.45,2.21-1,3l1,1.74a1.9,1.9,0,0,0,1.77.85,5.4,5.4,0,0,0,1.35-.19,15.32,15.32,0,0,0,3.9-1.66,16,16,0,0,0,3.37-2.57C259.61,105,259.93,104,259.45,103.16Z"/><ellipse class="cls-9" cx="252.76" cy="104.72" rx="5.53" ry="1.63" transform="translate(-18.35 141.53) rotate(-30.24)"/><path class="cls-6" d="M250.13,104.52c-1.58,1.21-2.49,2.4-2.15,3,.46.78,3,.17,5.6-1.37a15.89,15.89,0,0,0,2.69-1.95C252.82,105.06,250.92,105.09,250.13,104.52Z"/><path class="cls-9" d="M254.29,103.38,245.61,89c-.15-.27-1.08,0-2.08.55s-1.68,1.26-1.52,1.53l8.67,14.37c.16.27,1.09,0,2.09-.56S254.44,103.65,254.29,103.38Z"/><path class="cls-4" d="M252.74,88.49l-2.1-3.7c1.21-1.55,1.49-2.94.83-4.12L249.94,78a3.23,3.23,0,0,0-3.07-1.49c-3.25,0-7.9,2.46-9.24,3.22a29.32,29.32,0,0,0-6,4.3c-2.09,2-2.73,3.84-1.9,5.32L231.28,92a3.18,3.18,0,0,0,3.05,1.5,8.18,8.18,0,0,0,1.56-.16l2,3.57a2.75,2.75,0,0,0,2.61,1.32,7.44,7.44,0,0,0,1.85-.27,20.86,20.86,0,0,0,4.78-2,20.47,20.47,0,0,0,4.2-3.06C253,91.24,253.47,89.77,252.74,88.49Z"/><path class="cls-9" d="M250,116.41l-9.82-12.82c-.4-.52-1.46-.38-2.36.31s-1.31,1.67-.91,2.19l9.82,12.82c.4.53,1.45.39,2.35-.3S250.42,116.93,250,116.41Z"/><polygon class="cls-6" points="249.18 117.85 241.77 108.24 242.08 107.11 249.69 116.83 249.18 117.85"/><polygon class="cls-6" points="252.87 104.15 248.24 96.36 248.55 95.23 253.55 103.64 252.87 104.15"/><path class="cls-4" d="M231.17,102.93l-4.31-4.12c1-2,.44-3.08-.18-3.67l-1.76-1.68a2.28,2.28,0,0,0-1.62-.64,6.39,6.39,0,0,0-3.36,1.46,34.9,34.9,0,0,0-4.73,4.22,33.83,33.83,0,0,0-4,4.92c-.61.94-2.23,3.45-.59,5l1.76,1.67a2.22,2.22,0,0,0,1.62.64,4.08,4.08,0,0,0,1.81-.49l4.37,4.17a2.14,2.14,0,0,0,1.51.59c1.5,0,3.47-1.34,6.22-4.21C230.27,108.34,233.17,104.84,231.17,102.93Z"/><path class="cls-4" d="M239.45,104.05a2,2,0,0,0-1.13.47c-.62.48-.79,1-.76,1.1l9.8,12.81a.35.35,0,0,0,.16,0,2,2,0,0,0,1.12-.46c.63-.48.8-1,.77-1.1l-9.8-12.81a.32.32,0,0,0-.16,0m0-.77a.93.93,0,0,1,.76.31L250,116.41c.39.52,0,1.51-.92,2.2a2.72,2.72,0,0,1-1.59.62.9.9,0,0,1-.76-.32l-9.82-12.82c-.4-.52,0-1.5.91-2.19a2.77,2.77,0,0,1,1.6-.62Z"/><path class="cls-4" d="M250,129l-1-1.16c-1.69-2.11-5.6-1.67-8.91,1s-4.58,6.39-2.85,8.53l1,1.12a3.87,3.87,0,0,0,3.15,1.33,9.64,9.64,0,0,0,5.76-2.31,10.45,10.45,0,0,0,3.23-4.19A4.19,4.19,0,0,0,250,129Z"/><ellipse class="cls-6" cx="243.02" cy="132.49" rx="6.46" ry="3.73" transform="translate(-29.44 181.26) rotate(-38.75)"/><path class="cls-4" d="M244.35,101.26l-1.59-2.15c1.18-2,1.36-3.72.51-4.87l-2.49-3.62c-1.94-2.62-7.28-.78-11.55,2.39s-7.59,7.74-5.68,10.32L226,107c.92,1.24,2.74,1.55,5.16.89l1.52,2a2.52,2.52,0,0,0,2.14.94,10.94,10.94,0,0,0,5.79-2.39,13,13,0,0,0,3.35-3.49C245.21,103,244.74,101.78,244.35,101.26Z"/><path class="cls-9" d="M248.05,128.45c-1.28-1.61-4.58-1.1-7.36,1.13A10.28,10.28,0,0,0,239,131.3a2.53,2.53,0,0,0,.49,1.66c1.29,1.61,4.59,1.1,7.37-1.13a10.33,10.33,0,0,0,1.71-1.73A2.46,2.46,0,0,0,248.05,128.45Z"/><path class="cls-9" d="M238.25,136.81a3.45,3.45,0,0,0,2.83.59l3.27-5.33-3.13.42Z"/><path class="cls-9" d="M244.51,130.59,234.21,118c-.42-.51-1.47-.34-2.36.39s-1.26,1.72-.84,2.24l10.29,12.57c.42.51,1.48.34,2.36-.39S244.93,131.1,244.51,130.59Z"/><path class="cls-9" d="M220.88,137.63c1.07-2.12,2.65-5.37,2.65-5.37l-1.64.85-2.52,4.23c-.2.68-.21,1.13,0,1.26S220.18,138.37,220.88,137.63Z"/><ellipse class="cls-9" cx="232.18" cy="96.99" rx="9.21" ry="3.72" transform="translate(-12.12 157.26) rotate(-36.53)"/><path class="cls-9" d="M223.71,131.35l-11.32-7.9c-.2-.13-.92.62-1.61,1.67s-1.08,2-.88,2.15l11.32,7.9c.2.13.93-.62,1.61-1.67S223.92,131.48,223.71,131.35Z"/><polygon class="cls-6" points="217.05 127.15 216.94 128.7 222.7 132.78 223.39 131.57 217.05 127.15"/><path class="cls-4" d="M212.34,124.36a7.89,7.89,0,0,0-.91,1.19,7.66,7.66,0,0,0-.73,1.34l10.57,7.37a7.89,7.89,0,0,0,.91-1.19,7.66,7.66,0,0,0,.73-1.34l-10.57-7.37m0-.93,0,0,11.32,7.9c.21.13-.19,1.09-.88,2.15s-1.3,1.68-1.55,1.68h-.06l-11.32-7.9c-.2-.13.19-1.09.88-2.15s1.3-1.69,1.56-1.69Z"/><path class="cls-4" d="M217.61,119.61l-3.47-2.31c.75-2.39,0-3.5-.72-4l-2.35-1.57a2.1,2.1,0,0,0-1.16-.34c-2.07,0-4.89,2.67-8.41,7.93-2.39,3.6-3.81,6.46-4.2,8.49s.27,2.86.87,3.27l2.34,1.56a2.31,2.31,0,0,0,1.27.38,4.09,4.09,0,0,0,2.46-1.05l3.54,2.37a2.2,2.2,0,0,0,1.21.36c1.34,0,2.53-1.2,3.1-1.78a29.46,29.46,0,0,0,3.28-4.16,28.66,28.66,0,0,0,2.58-4.63C218.34,123.22,219.37,120.79,217.61,119.61Z"/><ellipse class="cls-9" cx="204.29" cy="121.14" rx="9.74" ry="1.87" transform="translate(-9.85 223.86) rotate(-56.29)"/><polygon class="cls-6" points="243.5 132.14 238.4 125.82 238.7 124.72 244.28 131.49 243.5 132.14"/><path class="cls-4" d="M233.48,118.5h0a2.05,2.05,0,0,0-1.14.51,1.7,1.7,0,0,0-.73,1.14l10.28,12.56a.3.3,0,0,0,.14,0,2,2,0,0,0,1.14-.5,1.72,1.72,0,0,0,.74-1.15l-10.29-12.55a.22.22,0,0,0-.14,0m0-.77a.89.89,0,0,1,.73.29l10.3,12.57c.42.51,0,1.52-.85,2.24a2.74,2.74,0,0,1-1.63.68.92.92,0,0,1-.73-.29L231,120.65c-.42-.52,0-1.52.84-2.24a2.7,2.7,0,0,1,1.63-.68Z"/><path class="cls-4" d="M240.07,116.13l-.94-1a5.41,5.41,0,0,0-.89-5.11l-1.89-2.23c-1.23-1.35-3.22-1.81-5.6-1.29a15.87,15.87,0,0,0-10.7,9.72c-.74,2.32-.47,4.34.74,5.67l1.89,2.23c1.17,1.29,3,1.76,5.25,1.36l.86.94a3.7,3.7,0,0,0,2.84,1.14,6.47,6.47,0,0,0,1.34-.15,10.51,10.51,0,0,0,4.69-2.56,10.66,10.66,0,0,0,3-4.43A4.22,4.22,0,0,0,240.07,116.13Z"/><ellipse class="cls-9" cx="228.58" cy="114.82" rx="9.23" ry="5.33" transform="translate(-17.8 183.59) rotate(-42.27)"/><polygon class="cls-9" points="212.7 119.44 216.41 121.81 216.09 122.72 212.3 120.28 212.7 119.44"/><polygon class="cls-9" points="222.11 99.9 223.15 100.88 222.54 101.59 221.52 100.67 222.11 99.9"/><polygon class="cls-9" points="211.1 114.17 212.92 115.44 212.7 116.32 210.84 115.1 211.1 114.17"/><polygon class="cls-9" points="237.41 111.02 238.56 112.39 238.44 113.29 237.42 112.11 237.41 111.02"/><polygon class="cls-9" points="238.49 115.87 240.07 117.97 239.93 118.84 238.3 116.73 238.49 115.87"/><path class="cls-6" d="M221.19,116.49c-.56,1.81-.42,3.46.56,4.54,2,2.18,6.64,1.17,10.41-2.26a12.89,12.89,0,0,0,3.91-6A19.19,19.19,0,0,1,221.19,116.49Z"/><ellipse class="cls-9" cx="217.66" cy="100.74" rx="8.42" ry="1.61" transform="translate(-5.49 188.65) rotate(-46.34)"/><path class="cls-6" d="M215.3,100.93c-2.51,2.86-4,5.37-3.45,5.9s3.76-1.61,7-5c.61-.64,1.18-1.27,1.69-1.88C218,101.42,216.09,102,215.3,100.93Z"/><polygon class="cls-9" points="242.05 100.36 243.99 102.96 243.72 103.66 241.75 100.99 242.05 100.36"/><polygon class="cls-9" points="241.32 93.78 242.94 95.98 242.68 96.68 241.03 94.41 241.32 93.78"/><polygon class="cls-9" points="248.5 85.65 250.94 89.94 250.58 90.47 248.11 86.11 248.5 85.65"/><polygon class="cls-9" points="248.53 81.09 249.4 82.62 249.04 83.15 248.14 81.55 248.53 81.09"/><path class="cls-9" d="M250.78,107.44l3.28-3.52-2.9.74-3,3C248.55,108,249.54,107.87,250.78,107.44Z"/><path class="cls-6" d="M225.9,98c-1.34,1.84-1.84,3.53-1.12,4.49,1.22,1.65,5.52.54,9.61-2.49A17.64,17.64,0,0,0,239.08,95C234.27,97.66,229.79,99,225.9,98Z"/><path class="cls-6" d="M201.8,121.56c-2.39,3.87-3.68,7.17-2.91,7.68s4-2.59,7-7.06c.57-.85,1.09-1.69,1.56-2.49C205.17,121.85,202.64,122.08,201.8,121.56Z"/><path class="cls-4" d="M245.13,89.71a4.81,4.81,0,0,0-1.21.53,4.94,4.94,0,0,0-1,.77l8.29,13.75a5,5,0,0,0,1.22-.53,5.23,5.23,0,0,0,1.05-.77l-8.3-13.75m.2-.81c.14,0,.24,0,.28.11l8.68,14.37c.15.27-.53,1-1.52,1.52a4.43,4.43,0,0,1-1.8.67c-.15,0-.25,0-.29-.11L242,91.09c-.16-.27.52-1,1.52-1.53a4.38,4.38,0,0,1,1.8-.66Z"/><ellipse class="cls-9" cx="239.73" cy="83.4" rx="9.65" ry="2.59" transform="translate(-10.12 128.14) rotate(-29.34)"/><path class="cls-6" d="M234.61,83.67c-2.41,1.85-3.77,3.6-3.29,4.46.7,1.24,5,.14,9.68-2.47a28.44,28.44,0,0,0,5.33-3.76C241.84,84.06,237.87,84.8,234.61,83.67Z"/><path class="cls-4" d="M291.07,66.85c-11.95,0-12.95,1.68-12.95,3.4v3.64c0,2,2.15,2.52,3.44,2.75v3.73c0,1.62.72,3,9.51,3s9.51-1.34,9.51-3V76.64c1.28-.23,3.44-.8,3.44-2.75V70.25C304,68.53,303,66.85,291.07,66.85Z"/><path class="cls-4" d="M291.07,75.63c-5.74,0-12.45,1.23-12.45,4.72v3.53c0,1.41,1.08,2.54,3.21,3.36v3.48c0,3.6,7.7,3.78,9.24,3.78s9.24-.18,9.24-3.78V87.24c2.13-.82,3.21-1.95,3.21-3.36V80.35C303.52,76.86,296.81,75.63,291.07,75.63Z"/><path class="cls-4" d="M291.07,117.32c-5.2,0-9.27,2.67-9.27,6.08v1.89c0,3.41,4.07,6.09,9.27,6.09s9.27-2.68,9.27-6.09V123.4C300.34,120,296.27,117.32,291.07,117.32Z"/><ellipse class="cls-9" cx="291.07" cy="123.4" rx="8.27" ry="5.08"/><path class="cls-6" d="M282.81,123.17a1.77,1.77,0,0,0,0,.23c0,2.81,3.7,5.08,8.27,5.08s8.27-2.27,8.27-5.08a1.77,1.77,0,0,0,0-.23A33.24,33.24,0,0,1,282.81,123.17Z"/><path class="cls-9" d="M287,127.83a12.41,12.41,0,0,0,4.07.65,12.6,12.6,0,0,0,4.16-.68l-1.5-5.58h-5.32Z"/><path class="cls-9" d="M291.07,102c-1.47,0-2.66.73-2.66,1.63v18.6c0,.9,1.19,1.63,2.66,1.63s2.66-.73,2.66-1.63v-18.6C293.73,102.72,292.54,102,291.07,102Z"/><polygon class="cls-6" points="292.18 122.96 292.18 116.44 292.95 115.8 292.98 122.46 292.18 122.96"/><polygon class="cls-9" points="289.95 122.96 289.95 116.44 289.18 115.8 289.15 122.46 289.95 122.96"/><path class="cls-4" d="M291.07,102.77c1.13,0,1.88.51,1.88.85v18.6c0,.34-.75.86-1.88.86s-1.88-.52-1.88-.86v-18.6c0-.34.75-.85,1.88-.85m0-.78c-1.47,0-2.66.73-2.66,1.63v18.6c0,.9,1.19,1.63,2.66,1.63s2.66-.73,2.66-1.63v-18.6c0-.9-1.19-1.63-2.66-1.63Z"/><path class="cls-4" d="M276.15,74.85l-1-4.18c-.32-1.32-1.62-2-4-2a49.55,49.55,0,0,0-16,3.92c-2,1.06-2.9,2.26-2.58,3.55l1,4.18c.42,1.68,2.25,1.91,3.24,1.94l.93,3.66c.29,1.16,1.28,1.75,3,1.75a11.65,11.65,0,0,0,1.27-.08,38.18,38.18,0,0,0,5.17-.93c3.54-.87,5.83-1.72,7-2.6a2.07,2.07,0,0,0,1-2.41L274.27,78C275.11,77.53,276.55,76.5,276.15,74.85Z"/><ellipse class="cls-9" cx="263.88" cy="73.23" rx="9.65" ry="1.59" transform="translate(-9.85 64.89) rotate(-13.76)"/><polygon class="cls-9" points="273.47 72.42 274.19 75.68 273.59 76.11 272.85 72.9 273.47 72.42"/><polygon class="cls-9" points="272.13 78.28 272.85 81.53 272.18 81.86 271.45 78.64 272.13 78.28"/><path class="cls-6" d="M262.68,71.9c-4.77,1.24-8.37,2.82-8.17,3.63s4.57.51,9.74-.76A47.66,47.66,0,0,0,270.09,73,23.56,23.56,0,0,1,262.68,71.9Z"/><path class="cls-4" d="M277,89.26l-1.14-4.4c-.24-1-1.23-2.27-4.65-2.57A30,30,0,0,0,255.39,86c-2.94,1.78-3.27,3.36-3,4.39l1.13,4.37c.22.93,1.09,2.08,3.92,2.49l1.17,4.81c.35,1.51,2.24,2.11,4.65,2.11a21,21,0,0,0,4.71-.6c4.25-1,8.29-3.07,7.72-5.5l-1.16-4.77C276.91,91.63,277.19,90.2,277,89.26Z"/><ellipse class="cls-9" cx="264.09" cy="87.59" rx="10.22" ry="3.37" transform="translate(-12.98 62.13) rotate(-13.1)"/><polygon class="cls-9" points="275.16 87.13 275.88 90.38 275.27 90.99 274.54 87.78 275.16 87.13"/><polygon class="cls-9" points="273.59 93.84 274.69 98.63 274.02 99.1 272.91 94.34 273.59 93.84"/><ellipse class="cls-9" cx="270" cy="132.49" rx="7.53" ry="5.2" transform="translate(-16.51 41.02) rotate(-8.43)"/><path class="cls-4" d="M278.6,129.18l-.31-1.66a5.15,5.15,0,0,0-3.27-3.71,10.15,10.15,0,0,0-5.81-.53c-4.49.84-7.53,4-6.93,7.23l.31,1.67a5.18,5.18,0,0,0,3.27,3.71,9.37,9.37,0,0,0,3.71.72,11.65,11.65,0,0,0,2.1-.2,10.08,10.08,0,0,0,5.22-2.58A5.19,5.19,0,0,0,278.6,129.18Z"/><ellipse class="cls-9" cx="270.28" cy="129.02" rx="7.11" ry="4.8" transform="translate(-19.1 51.86) rotate(-10.59)"/><path class="cls-6" d="M263.79,127.79a3.58,3.58,0,0,0-.49,2.53c.48,2.61,4,4.13,7.87,3.41,3.55-.66,6.15-3,6.16-5.4C271.2,131.17,267.22,130,263.79,127.79Z"/><path class="cls-9" d="M265.92,133.25a9,9,0,0,0,5.06.52l1.56-6.26-4.63.8Z"/><path class="cls-9" d="M272.52,127.18l-2.92-14.63c-.18-.73-1.36-1.07-2.63-.76s-2.17,1.16-2,1.89l2.93,14.63c.18.73,1.36,1.07,2.63.76S272.7,127.91,272.52,127.18Z"/><polygon class="cls-6" points="271.03 128.18 269.53 120.22 270.21 119.58 271.83 127.68 271.03 128.18"/><path class="cls-4" d="M267.89,112.45a1.31,1.31,0,0,1,.95.26l2.93,14.65c0,.15-.41.71-1.41,1a3.33,3.33,0,0,1-.75.09,1.36,1.36,0,0,1-.94-.25l-2.93-14.66s0-.16.23-.36a2.68,2.68,0,0,1,1.18-.6,3.18,3.18,0,0,1,.74-.09m0-.78a3.81,3.81,0,0,0-.92.12c-1.28.31-2.17,1.16-2,1.89l2.93,14.63c.13.55.83.88,1.7.88a3.83,3.83,0,0,0,.93-.12c1.27-.31,2.16-1.16,2-1.89l-2.92-14.63c-.14-.55-.83-.88-1.71-.88Z"/><ellipse class="cls-9" cx="291.07" cy="80.35" rx="10.95" ry="3.23"/><ellipse class="cls-6" cx="291.07" cy="70.1" rx="10.95" ry="1.39"/><path class="cls-4" d="M275.15,109.8c1.72-1.78,2.42-3.75,2-5.6l-.75-3.09c-.48-2-2.16-3.44-4.74-4.19a16.22,16.22,0,0,0-8.19,0c-6.3,1.55-10.5,5.79-9.55,9.67l.76,3.08a5.88,5.88,0,0,0,4.05,4l.49,2.47.06.32a4.68,4.68,0,0,0,3.56,3.18,9.89,9.89,0,0,0,2.78.37,13.29,13.29,0,0,0,3.14-.39c4.61-1.13,7.66-4.28,7-7.13Z"/><ellipse class="cls-9" cx="265.12" cy="103.86" rx="10.28" ry="5.92" transform="translate(-17.1 66.06) rotate(-13.76)"/><path class="cls-6" d="M256.19,102.49a4.55,4.55,0,0,0-1.06,3.82c.78,3.18,5.88,4.66,11.4,3.31,4.26-1.05,7.51-3.47,8.42-6C267.89,106.06,261.58,105.87,256.19,102.49Z"/><polygon class="cls-9" points="274.09 110.35 274.78 114.07 274.18 114.8 273.44 110.97 274.09 110.35"/><polygon class="cls-9" points="275.31 105.59 275.65 107.48 275.05 108.21 274.69 106.36 275.31 105.59"/><path class="cls-6" d="M259,85.67c-3.17,1.3-5.18,3-4.88,4.24.42,1.81,5.22,2.24,10.71,1a21.58,21.58,0,0,0,7.68-3.18C265.9,88.55,261,88.17,259,85.67Z"/><path class="cls-4" d="M291.07,87.35c-7.5,0-13.37,3.86-13.37,8.79v4c0,2.4,1.42,4.64,3.93,6.28v2.91c0,3.58,4.15,6.38,9.44,6.38s9.44-2.8,9.44-6.38v-2.91c2.51-1.64,3.93-3.88,3.93-6.28v-4C304.44,91.21,298.57,87.35,291.07,87.35Z"/><ellipse class="cls-9" cx="291.07" cy="96.14" rx="11.52" ry="7.08"/><path class="cls-6" d="M291.07,103.23c6.36,0,11.52-3.17,11.52-7.09a33.09,33.09,0,0,1-23,0C279.55,100.06,284.7,103.23,291.07,103.23Z"/><polygon class="cls-9" points="279.2 98.81 279.2 102.23 279.99 103.44 279.99 100.35 279.2 98.81"/><polygon class="cls-9" points="282.82 107.08 282.82 110.87 283.61 111.71 283.61 107.67 282.82 107.08"/><polygon class="cls-9" points="303.07 98.81 303.07 102.23 302.28 103.44 302.28 100.35 303.07 98.81"/><polygon class="cls-9" points="299.44 107.08 299.44 110.87 298.65 111.71 298.65 107.67 299.44 107.08"/><path class="cls-6" d="M280.2,80.74c.64,1.6,5.26,2.84,10.87,2.84s10.23-1.24,10.87-2.84C301.94,81.21,280.2,81.21,280.2,80.74Z"/><polygon class="cls-9" points="301.08 74.52 301.92 74.21 301.92 71.4 301.08 71.71 301.08 74.52"/><polygon class="cls-9" points="280.92 74.52 280.08 74.21 280.08 71.4 280.92 71.71 280.92 74.52"/><polygon class="cls-9" points="301.08 85.25 301.92 84.63 301.92 82.18 301.08 82.8 301.08 85.25"/><polygon class="cls-9" points="280.92 85.25 280.08 84.63 280.08 82.18 280.92 82.8 280.92 85.25"/><ellipse class="cls-9" cx="338.94" cy="135.13" rx="4.44" ry="7.71" transform="translate(21.42 314.9) rotate(-51.25)"/><ellipse class="cls-9" cx="357.78" cy="136.4" rx="1.93" ry="7.71" transform="translate(-21.31 190.25) rotate(-28.95)"/><path class="cls-4" d="M328.15,115l1-1.3c1.39-1.72,4.79-.47,7.43,1.66a12.21,12.21,0,0,1,3,3.4c1.07,1.92.57,3,.18,3.5l-1,1.29a2.36,2.36,0,0,1-1.94.82,5.2,5.2,0,0,1-1.52-.25,12.47,12.47,0,0,1-4-2.22C328.7,119.74,326.76,116.69,328.15,115Z"/><ellipse class="cls-9" cx="334.5" cy="117.95" rx="2.34" ry="5.79" transform="translate(32.86 304.54) rotate(-51.16)"/><path class="cls-6" d="M337.12,117.16c1.73,1.75,2.56,3.59,1.89,4.42-.81,1-3.49.2-6-1.81a11.31,11.31,0,0,1-2.74-3.08C332.65,118,335,118.51,337.12,117.16Z"/><path class="cls-4" d="M354,129.86a1.34,1.34,0,0,1,.59-.83l2.23-1.37c1.23-.74,3.07.87,5.48,4.79.65,1.06,2.75,4.64,2.37,6.2a1.32,1.32,0,0,1-.59.83l-2.23,1.38a1.26,1.26,0,0,1-.62.17c-1.2,0-2.83-1.67-4.86-5C355.75,135,353.65,131.42,354,129.86Z"/><path class="cls-6" d="M357.38,128.54c.54-.32,2.36,1.67,4.07,4.45s2.65,5.29,2.12,5.61-2.36-1.67-4.07-4.45S356.84,128.87,357.38,128.54Z"/><path class="cls-9" d="M334.53,120.83,333,117.65l2.14-.51,3.64,4.67C337.94,122.29,336.29,121.89,334.53,120.83Z"/><path class="cls-9" d="M357.38,128.54c.54-.32,2.36,1.67,4.07,4.45.28.46.54.91.77,1.35s-1.75.67-4.11-3.42c-.27-.47-.54-.91-.78-1.35S357.2,128.65,357.38,128.54Z"/><path class="cls-4" d="M323.49,103.16l1-1.75c1.28-2.19,6.07.46,7,1a15.37,15.37,0,0,1,3.37,2.56c1.12,1.19,1.45,2.21,1,3l-1,1.74a1.9,1.9,0,0,1-1.77.85,5.4,5.4,0,0,1-1.35-.19,15.47,15.47,0,0,1-3.9-1.66,15.87,15.87,0,0,1-3.36-2.57C323.32,105,323,104,323.49,103.16Z"/><ellipse class="cls-9" cx="330.17" cy="104.72" rx="1.63" ry="5.53" transform="translate(73.44 337.24) rotate(-59.76)"/><path class="cls-6" d="M332.8,104.52c1.58,1.21,2.49,2.4,2.15,3-.45.78-3,.17-5.6-1.37a15.89,15.89,0,0,1-2.69-1.95C330.11,105.06,332,105.09,332.8,104.52Z"/><path class="cls-9" d="M328.64,103.38,337.32,89c.15-.27,1.08,0,2.08.55s1.68,1.26,1.52,1.53l-8.67,14.37c-.15.27-1.09,0-2.08-.56S328.49,103.65,328.64,103.38Z"/><path class="cls-4" d="M330.19,88.49l2.1-3.7c-1.21-1.55-1.49-2.94-.83-4.12L333,78a3.23,3.23,0,0,1,3.07-1.49c3.25,0,7.9,2.46,9.24,3.22a29.32,29.32,0,0,1,6,4.3c2.09,2,2.73,3.84,1.9,5.32L351.66,92a3.21,3.21,0,0,1-3.06,1.5,8.18,8.18,0,0,1-1.56-.16l-2,3.57a2.75,2.75,0,0,1-2.61,1.32,7.44,7.44,0,0,1-1.85-.27,23,23,0,0,1-9-5.1C329.92,91.24,329.46,89.77,330.19,88.49Z"/><path class="cls-9" d="M332.91,116.41l9.81-12.82c.4-.52,1.46-.38,2.36.31s1.31,1.67.91,2.19l-9.82,12.82c-.4.53-1.45.39-2.35-.3S332.51,116.93,332.91,116.41Z"/><polygon class="cls-6" points="333.75 117.85 341.16 108.24 340.85 107.11 333.25 116.83 333.75 117.85"/><polygon class="cls-6" points="330.06 104.15 334.69 96.36 334.38 95.23 329.38 103.64 330.06 104.15"/><path class="cls-4" d="M351.76,102.93l4.31-4.12c-1-2-.44-3.08.18-3.67L358,93.46a2.28,2.28,0,0,1,1.62-.64A6.47,6.47,0,0,1,363,94.28a35.49,35.49,0,0,1,4.72,4.22,33.83,33.83,0,0,1,4,4.92c.61.94,2.23,3.45.59,5l-1.76,1.67a2.22,2.22,0,0,1-1.62.64,4.11,4.11,0,0,1-1.81-.49l-4.37,4.17a2.14,2.14,0,0,1-1.51.59c-1.5,0-3.47-1.34-6.22-4.21C352.66,108.34,349.76,104.84,351.76,102.93Z"/><path class="cls-4" d="M343.49,104.05a2,2,0,0,1,1.12.47c.62.48.79,1,.76,1.1l-9.8,12.81a.35.35,0,0,1-.16,0,2,2,0,0,1-1.12-.46c-.63-.48-.8-1-.77-1.1l9.8-12.81a.38.38,0,0,1,.17,0m0-.77a1,1,0,0,0-.77.31l-9.81,12.82c-.4.52,0,1.51.91,2.2a2.74,2.74,0,0,0,1.59.62.89.89,0,0,0,.76-.32L346,106.09c.4-.52,0-1.5-.91-2.19a2.74,2.74,0,0,0-1.59-.62Z"/><path class="cls-4" d="M332.92,129l1-1.16c1.69-2.11,5.6-1.67,8.91,1s4.58,6.39,2.85,8.53l-1,1.12a3.87,3.87,0,0,1-3.15,1.33,9.64,9.64,0,0,1-5.76-2.31,10.45,10.45,0,0,1-3.23-4.19A4.22,4.22,0,0,1,332.92,129Z"/><ellipse class="cls-6" cx="339.91" cy="132.49" rx="3.73" ry="6.46" transform="translate(23.84 314.67) rotate(-51.25)"/><path class="cls-4" d="M338.58,101.26l1.59-2.15c-1.18-2-1.36-3.72-.51-4.87l2.49-3.62c1.94-2.62,7.28-.78,11.55,2.39s7.59,7.74,5.68,10.32L356.89,107c-.92,1.24-2.74,1.55-5.16.89l-1.52,2a2.52,2.52,0,0,1-2.14.94,11,11,0,0,1-5.79-2.39,13.33,13.33,0,0,1-3.35-3.49C337.72,103,338.19,101.78,338.58,101.26Z"/><path class="cls-9" d="M334.88,128.45c1.29-1.61,4.58-1.1,7.37,1.13a10.6,10.6,0,0,1,1.7,1.72,2.53,2.53,0,0,1-.49,1.66c-1.29,1.61-4.59,1.1-7.37-1.13a10.33,10.33,0,0,1-1.71-1.73A2.51,2.51,0,0,1,334.88,128.45Z"/><path class="cls-9" d="M344.68,136.81a3.45,3.45,0,0,1-2.83.59l-3.27-5.33,3.13.42Z"/><path class="cls-9" d="M338.42,130.59,348.72,118c.42-.51,1.47-.34,2.36.39s1.26,1.72.84,2.24l-10.29,12.57c-.42.51-1.48.34-2.36-.39S338,131.1,338.42,130.59Z"/><path class="cls-9" d="M362.06,137.63c-1.08-2.12-2.66-5.37-2.66-5.37l1.64.85,2.52,4.23c.2.68.22,1.13,0,1.26S362.75,138.37,362.06,137.63Z"/><ellipse class="cls-9" cx="350.75" cy="96.99" rx="3.72" ry="9.21" transform="translate(64.03 321.09) rotate(-53.47)"/><path class="cls-9" d="M359.22,131.35l11.32-7.9c.2-.13.92.62,1.61,1.67s1.09,2,.88,2.15l-11.32,7.9c-.2.13-.92-.62-1.61-1.67S359,131.48,359.22,131.35Z"/><polygon class="cls-6" points="365.88 127.15 365.99 128.7 360.23 132.78 359.54 131.57 365.88 127.15"/><path class="cls-4" d="M370.59,124.36a7.89,7.89,0,0,1,.91,1.19,7.66,7.66,0,0,1,.73,1.34l-10.57,7.37a7.89,7.89,0,0,1-.91-1.19,7.66,7.66,0,0,1-.73-1.34l10.57-7.37m0-.93a.11.11,0,0,0-.06,0l-11.32,7.9c-.21.13.19,1.09.88,2.15s1.3,1.68,1.55,1.68h.06l11.32-7.9c.21-.13-.19-1.09-.88-2.15s-1.3-1.69-1.55-1.69Z"/><path class="cls-4" d="M365.32,119.61l3.47-2.31c-.75-2.39,0-3.5.73-4l2.34-1.57a2.1,2.1,0,0,1,1.16-.34c2.07,0,4.89,2.67,8.41,7.93,2.4,3.6,3.81,6.46,4.2,8.49s-.27,2.86-.87,3.27l-2.34,1.56a2.31,2.31,0,0,1-1.27.38,4.09,4.09,0,0,1-2.46-1.05l-3.54,2.37a2.17,2.17,0,0,1-1.21.36c-1.34,0-2.53-1.2-3.1-1.78a29.46,29.46,0,0,1-3.28-4.16,28.66,28.66,0,0,1-2.58-4.63C364.59,123.22,363.57,120.79,365.32,119.61Z"/><ellipse class="cls-9" cx="378.64" cy="121.14" rx="1.87" ry="9.74" transform="translate(-3.57 230.49) rotate(-33.71)"/><polygon class="cls-6" points="339.43 132.14 344.53 125.82 344.23 124.72 338.65 131.49 339.43 132.14"/><path class="cls-4" d="M349.45,118.5h0a2.05,2.05,0,0,1,1.14.51,1.66,1.66,0,0,1,.73,1.14L341,132.71a.3.3,0,0,1-.14,0,2,2,0,0,1-1.14-.5,1.72,1.72,0,0,1-.74-1.15l10.29-12.55a.22.22,0,0,1,.14,0m0-.77a.89.89,0,0,0-.73.29l-10.3,12.57c-.42.51,0,1.52.85,2.24a2.74,2.74,0,0,0,1.63.68.91.91,0,0,0,.73-.29l10.29-12.57c.42-.52,0-1.52-.84-2.24a2.7,2.7,0,0,0-1.63-.68Z"/><path class="cls-4" d="M342.86,116.13l.94-1a5.41,5.41,0,0,1,.89-5.11l1.9-2.23c1.22-1.35,3.21-1.81,5.59-1.29a15.87,15.87,0,0,1,10.7,9.72c.74,2.32.47,4.34-.73,5.67l-1.9,2.23c-1.17,1.29-3,1.76-5.25,1.36l-.86.94a3.7,3.7,0,0,1-2.84,1.14,6.31,6.31,0,0,1-1.33-.15,10.54,10.54,0,0,1-4.7-2.56,10.66,10.66,0,0,1-3-4.43A4.22,4.22,0,0,1,342.86,116.13Z"/><ellipse class="cls-9" cx="354.35" cy="114.82" rx="5.33" ry="9.23" transform="translate(31.05 299.83) rotate(-47.73)"/><polygon class="cls-9" points="370.24 119.44 366.52 121.81 366.84 122.72 370.63 120.28 370.24 119.44"/><polygon class="cls-9" points="360.82 99.9 359.78 100.88 360.39 101.59 361.41 100.67 360.82 99.9"/><polygon class="cls-9" points="371.83 114.17 370.01 115.44 370.24 116.32 372.09 115.1 371.83 114.17"/><polygon class="cls-9" points="345.52 111.02 344.37 112.39 344.49 113.29 345.51 112.11 345.52 111.02"/><polygon class="cls-9" points="344.44 115.87 342.86 117.97 343 118.84 344.63 116.73 344.44 115.87"/><path class="cls-6" d="M361.74,116.49c.56,1.81.42,3.46-.56,4.54-2,2.18-6.64,1.17-10.41-2.26a12.89,12.89,0,0,1-3.91-6A19.19,19.19,0,0,0,361.74,116.49Z"/><ellipse class="cls-9" cx="365.27" cy="100.74" rx="1.61" ry="8.42" transform="translate(31.47 280.05) rotate(-43.66)"/><path class="cls-6" d="M367.63,100.93c2.51,2.86,4,5.37,3.45,5.9s-3.76-1.61-7-5c-.61-.64-1.18-1.27-1.69-1.88C364.9,101.42,366.84,102,367.63,100.93Z"/><polygon class="cls-9" points="340.88 100.36 338.94 102.96 339.21 103.66 341.18 100.99 340.88 100.36"/><polygon class="cls-9" points="341.61 93.78 339.99 95.98 340.25 96.68 341.9 94.41 341.61 93.78"/><polygon class="cls-9" points="334.43 85.65 331.99 89.94 332.35 90.47 334.82 86.11 334.43 85.65"/><polygon class="cls-9" points="334.4 81.09 333.53 82.62 333.89 83.15 334.79 81.55 334.4 81.09"/><path class="cls-9" d="M332.15,107.44l-3.28-3.52,2.9.74,3,3C334.38,108,333.39,107.87,332.15,107.44Z"/><path class="cls-6" d="M357,98c1.34,1.84,1.84,3.53,1.12,4.49-1.22,1.65-5.52.54-9.61-2.49A17.64,17.64,0,0,1,343.85,95C348.66,97.66,353.14,99,357,98Z"/><path class="cls-6" d="M381.13,121.56c2.39,3.87,3.68,7.17,2.91,7.68s-4-2.59-7-7.06c-.57-.85-1.09-1.69-1.55-2.49C377.76,121.85,380.29,122.08,381.13,121.56Z"/><path class="cls-4" d="M337.8,89.71a4.81,4.81,0,0,1,1.21.53,5.07,5.07,0,0,1,1.06.77l-8.3,13.75a5,5,0,0,1-1.22-.53,5.23,5.23,0,0,1-1.05-.77l8.3-13.75m-.2-.81c-.14,0-.24,0-.28.11l-8.68,14.37c-.15.27.53,1,1.53,1.52a4.35,4.35,0,0,0,1.79.67c.15,0,.25,0,.29-.11l8.67-14.37c.16-.27-.52-1-1.52-1.53a4.33,4.33,0,0,0-1.8-.66Z"/><ellipse class="cls-9" cx="343.2" cy="83.4" rx="2.59" ry="9.65" transform="translate(102.35 341.73) rotate(-60.66)"/><path class="cls-6" d="M348.32,83.67c2.41,1.85,3.77,3.6,3.29,4.46-.7,1.24-5,.14-9.68-2.47a28,28,0,0,1-5.32-3.76C341.09,84.06,345.06,84.8,348.32,83.67Z"/><path class="cls-4" d="M306.78,74.85l1-4.18c.32-1.32,1.62-2,4-2a49.55,49.55,0,0,1,16,3.92c2,1.06,2.9,2.26,2.58,3.55l-1,4.18C328.86,82,327,82.27,326,82.3L325.11,86c-.28,1.16-1.28,1.75-3,1.75a11.65,11.65,0,0,1-1.27-.08,38.18,38.18,0,0,1-5.17-.93c-3.54-.87-5.83-1.72-7-2.6a2.07,2.07,0,0,1-1-2.41l.93-3.68C307.82,77.53,306.38,76.5,306.78,74.85Z"/><ellipse class="cls-9" cx="319.05" cy="73.23" rx="1.59" ry="9.65" transform="translate(172.01 365.7) rotate(-76.24)"/><polygon class="cls-9" points="309.46 72.42 308.74 75.68 309.34 76.11 310.08 72.9 309.46 72.42"/><polygon class="cls-9" points="310.8 78.28 310.08 81.53 310.75 81.86 311.49 78.64 310.8 78.28"/><path class="cls-6" d="M320.25,71.9c4.77,1.24,8.37,2.82,8.17,3.63s-4.57.51-9.74-.76A47.66,47.66,0,0,1,312.84,73,23.56,23.56,0,0,0,320.25,71.9Z"/><path class="cls-4" d="M306,89.26l1.14-4.4c.24-1,1.23-2.27,4.66-2.57A30,30,0,0,1,327.54,86c2.94,1.78,3.27,3.36,3,4.39l-1.13,4.37c-.22.93-1.09,2.08-3.92,2.49L324.35,102c-.35,1.51-2.24,2.11-4.65,2.11a21,21,0,0,1-4.71-.6c-4.25-1-8.29-3.07-7.72-5.5l1.16-4.77C306,91.63,305.74,90.2,306,89.26Z"/><ellipse class="cls-9" cx="318.84" cy="87.59" rx="3.37" ry="10.22" transform="translate(161.27 378.29) rotate(-76.9)"/><polygon class="cls-9" points="307.77 87.13 307.05 90.38 307.66 90.99 308.39 87.78 307.77 87.13"/><polygon class="cls-9" points="309.34 93.84 308.24 98.63 308.91 99.1 310.02 94.34 309.34 93.84"/><ellipse class="cls-9" cx="312.93" cy="132.49" rx="5.2" ry="7.53" transform="translate(135.99 422.61) rotate(-81.57)"/><path class="cls-4" d="M304.33,129.18l.31-1.66a5.14,5.14,0,0,1,3.28-3.71,10.1,10.1,0,0,1,5.8-.53c4.49.84,7.53,4,6.93,7.23l-.31,1.67a5.18,5.18,0,0,1-3.27,3.71,9.37,9.37,0,0,1-3.71.72,11.65,11.65,0,0,1-2.1-.2,10.08,10.08,0,0,1-5.22-2.58A5.19,5.19,0,0,1,304.33,129.18Z"/><ellipse class="cls-9" cx="312.65" cy="129.02" rx="4.8" ry="7.11" transform="translate(128.38 412.64) rotate(-79.41)"/><path class="cls-6" d="M319.14,127.79a3.64,3.64,0,0,1,.5,2.53c-.49,2.61-4,4.13-7.88,3.41-3.55-.66-6.15-3-6.16-5.4C311.73,131.17,315.71,130,319.14,127.79Z"/><path class="cls-9" d="M317,133.25a9,9,0,0,1-5.06.52l-1.56-6.26,4.63.8Z"/><path class="cls-9" d="M310.41,127.18l2.92-14.63c.18-.73,1.36-1.07,2.64-.76s2.16,1.16,2,1.89L315,128.31c-.18.73-1.35,1.07-2.63.76S310.23,127.91,310.41,127.18Z"/><polygon class="cls-6" points="311.9 128.18 313.4 120.22 312.72 119.58 311.11 127.68 311.9 128.18"/><path class="cls-4" d="M315,112.45a1.31,1.31,0,0,0-1,.26l-2.93,14.65c0,.15.41.71,1.42,1a3.18,3.18,0,0,0,.74.09,1.36,1.36,0,0,0,.94-.25l2.93-14.66s0-.16-.22-.36a2.78,2.78,0,0,0-1.19-.6,3.18,3.18,0,0,0-.74-.09m0-.78a3.89,3.89,0,0,1,.93.12c1.27.31,2.16,1.16,2,1.89L315,128.31c-.13.55-.83.88-1.7.88a3.89,3.89,0,0,1-.93-.12c-1.27-.31-2.16-1.16-2-1.89l2.92-14.63c.14-.55.83-.88,1.71-.88Z"/><path class="cls-4" d="M307.78,109.8c-1.72-1.78-2.42-3.75-2-5.6l.75-3.09c.48-2,2.17-3.44,4.74-4.19a16.22,16.22,0,0,1,8.19,0c6.3,1.55,10.5,5.79,9.55,9.67l-.76,3.08a5.88,5.88,0,0,1-4.05,4l-.49,2.47-.06.32a4.68,4.68,0,0,1-3.56,3.18,9.89,9.89,0,0,1-2.78.37,13.29,13.29,0,0,1-3.14-.39c-4.61-1.13-7.66-4.28-7-7.13Z"/><ellipse class="cls-9" cx="317.81" cy="103.86" rx="5.92" ry="10.28" transform="translate(141.31 387.83) rotate(-76.24)"/><path class="cls-6" d="M326.75,102.49a4.54,4.54,0,0,1,1.05,3.82c-.78,3.18-5.88,4.66-11.4,3.31-4.26-1.05-7.51-3.47-8.42-6C315,106.06,321.35,105.87,326.75,102.49Z"/><polygon class="cls-9" points="308.84 110.35 308.15 114.07 308.75 114.8 309.49 110.97 308.84 110.35"/><polygon class="cls-9" points="307.62 105.59 307.28 107.48 307.88 108.21 308.24 106.36 307.62 105.59"/><path class="cls-6" d="M323.91,85.67c3.17,1.3,5.18,3,4.88,4.24-.42,1.81-5.21,2.24-10.71,1a21.58,21.58,0,0,1-7.68-3.18C317,88.55,321.94,88.17,323.91,85.67Z"/><rect class="cls-9" x="169.11" y="206.24" width="18.38" height="137.82"/><rect class="cls-6" x="180.12" y="206.24" width="7.2" height="138.21" transform="translate(367.44 550.69) rotate(180)"/><rect class="cls-10" x="169.01" y="206.24" width="5.8" height="138.21"/><path class="cls-4" d="M188.65,345.22H168V205.08h20.7Zm-18.37-2.33h16V207.4h-16Z"/><rect class="cls-9" x="399.51" y="158.03" width="18.38" height="120.16"/><path class="cls-9" d="M187.74,344.06H168.86a5.35,5.35,0,0,0-5.17,3.93l-2.91,10.47h35L192.92,348A5.37,5.37,0,0,0,187.74,344.06Z"/><path class="cls-6" d="M193,348.31l-.09-.32a5.37,5.37,0,0,0-5.18-3.93H168.86a5.35,5.35,0,0,0-5.17,3.93l-.1.32Z"/><path class="cls-4" d="M197.35,359.62h-38.1l3.31-11.94a6.56,6.56,0,0,1,6.3-4.79h18.88a6.55,6.55,0,0,1,6.3,4.79Zm-35-2.32h32l-2.5-9a4.22,4.22,0,0,0-4-3.08H168.86a4.22,4.22,0,0,0-4.05,3.08Z"/><path class="cls-9" d="M160.55,358.46H444.86a6,6,0,0,1,6,6v4.59a0,0,0,0,1,0,0H154.52a0,0,0,0,1,0,0v-4.59A6,6,0,0,1,160.55,358.46Z"/><path class="cls-6" d="M158.78,358.46H446.62a4.26,4.26,0,0,1,4.26,4.26v1a0,0,0,0,1,0,0H154.52a0,0,0,0,1,0,0v-1A4.26,4.26,0,0,1,158.78,358.46Z"/><path class="cls-4" d="M452.05,370.24H153.36v-5.75a7.19,7.19,0,0,1,7.19-7.19H444.86a7.2,7.2,0,0,1,7.19,7.19Zm-296.37-2.33h294v-3.42a4.87,4.87,0,0,0-4.86-4.87H160.55a4.88,4.88,0,0,0-4.87,4.87Z"/><path class="cls-9" d="M178.3,177.4h0a13.85,13.85,0,0,1,13.85,13.85v15a0,0,0,0,1,0,0h-27.7a0,0,0,0,1,0,0v-15A13.85,13.85,0,0,1,178.3,177.4Z"/><path class="cls-6" d="M178.3,186.56a21,21,0,0,1,13.85,4.95v-.25A13.86,13.86,0,0,0,178.3,177.4h0a13.86,13.86,0,0,0-13.85,13.86v.25A21,21,0,0,1,178.3,186.56Z"/><path class="cls-4" d="M193.32,207.4h-30V191.26a15,15,0,0,1,30,0Zm-27.71-2.32H191V191.26a12.69,12.69,0,0,0-25.38,0Z"/><path class="cls-9" d="M258.42,189.86l0-.05a10,10,0,0,0-14.09-5.46,117.87,117.87,0,0,0-22.44,15.82c-15.14,13.58-33.85,37.79-37,76-3.43,41.67,11.76,68.4,21.75,81.17A10,10,0,0,0,222.31,345c-5.89-7.49-14.77-22.15-17.26-44.62a12,12,0,0,0-.13-23.81c2.29-24.54,12.27-45.06,29.72-61a97.54,97.54,0,0,1,19.16-13.63A10,10,0,0,0,258.42,189.86Z"/><path class="cls-6" d="M234.64,215.57a97.54,97.54,0,0,1,19.16-13.63,10,10,0,0,0,4.62-12.08l0-.05q-.09-.27-.21-.54C207.5,211.58,193,253.7,193,287.51c0,33.48,18.72,61.4,27.56,71.45a9.95,9.95,0,0,0,1.74-14c-5.89-7.49-14.77-22.15-17.26-44.62a12,12,0,0,0-.13-23.81C207.21,252,217.19,231.48,234.64,215.57Z"/><path class="cls-4" d="M259.51,189.47v-.05a11.12,11.12,0,0,0-15.75-6.09,117.78,117.78,0,0,0-22.65,16C205.8,213,186.89,237.48,183.72,276c-3.5,42.41,12.28,69.57,22,82a11,11,0,0,0,8.47,4.23h.24a11.15,11.15,0,0,0,8.8-18c-5.2-6.6-14.22-20.89-16.9-43a13.16,13.16,0,0,0,10-12.82,13.31,13.31,0,0,0-10.18-12.86c2.45-23.8,12.29-43.7,29.24-59.17A97.54,97.54,0,0,1,254.35,203,11.05,11.05,0,0,0,259.51,189.47Zm-4.77,10.43-2.44-4.68v0l-1.9,1.08,2.52,4.83c-1.76,1-3.83,2.16-6.1,3.63l-2.75-4.52-1.81,1.23L245,206c-1.82,1.23-3.73,2.62-5.71,4.17l-3-4.22c-.57.46-1.14.92-1.7,1.39l3,4.2c-1.23,1-2.47,2.09-3.72,3.22-.51.47-1,.93-1.51,1.41l-3.29-3.9c-.53.51-1.05,1-1.56,1.54l3.28,3.89c-2,2-3.91,4.06-5.7,6.2l-3.73-3.34c-.47.56-.93,1.13-1.38,1.7l3.72,3.33q-2.62,3.27-4.91,6.74l-4.08-2.75c-.4.62-.79,1.23-1.17,1.85l4.06,2.74q-2.09,3.34-3.87,6.87l-4.41-2.09c-.33.66-.65,1.31-1,2l4.4,2.08c-1.25,2.62-2.38,5.32-3.38,8.08l-4.62-1.59c-.25.69-.5,1.37-.73,2.06l4.62,1.59q-1.31,3.87-2.29,7.9l-4.89-.81c-.18.71-.34,1.42-.51,2.13l4.9.82q-1,4.37-1.58,8.93l-5-.48c-.1.72-.19,1.44-.28,2.17l5,.48c-.08.73-.16,1.47-.23,2.21l-.1,1.09,1.09.17a10.88,10.88,0,0,1,.12,21.5l-1.1.18.12,1.1.18,1.5-4.62.45c.12.73.24,1.45.38,2.16l4.54-.44c.37,2.56.83,5,1.36,7.37l-4.14.88c.19.71.38,1.41.59,2.11l4-.86c.71,2.87,1.52,5.57,2.4,8.1l-3.51,1.6c.26.68.52,1.36.79,2l3.46-1.57c1.08,2.91,2.24,5.58,3.43,8l-3.18,1.93c.32.66.65,1.32,1,2l3.19-1.93a80.4,80.4,0,0,0,4.74,8l-3.14,2.56c.39.64.78,1.26,1.17,1.87l3.23-2.64c.56.79,1.1,1.5,1.61,2.14a8.81,8.81,0,0,1-13.85,10.88C198,344.42,182.61,317.83,186,276.21c3.11-37.77,21.63-61.73,36.61-75.18a117.56,117.56,0,0,1,22.21-15.66,8.8,8.8,0,0,1,12.44,4.82l0,.06A8.75,8.75,0,0,1,254.74,199.9Z"/><rect class="cls-9" x="350.3" y="343.34" width="4.95" height="15.12"/><path class="cls-4" d="M356.41,359.62h-7.27V342.17h7.27Zm-5-2.32h2.62V344.5h-2.62Z"/><rect class="cls-9" x="345.92" y="336.83" width="13.71" height="6.5"/><rect class="cls-6" x="345.92" y="336.83" width="13.71" height="2.98"/><path class="cls-4" d="M360.79,344.5h-16v-8.83h16Zm-13.71-2.33h11.39V338H347.08Z"/><rect class="cls-9" x="281.63" y="201.01" width="45.51" height="24.45"/><rect class="cls-8" x="282.79" y="205.61" width="43.19" height="3.59"/><rect class="cls-10" x="282.79" y="201.8" width="43.19" height="3.81"/><rect class="cls-11" x="282.79" y="216.9" width="43.19" height="7.35"/><rect class="cls-4" x="287.27" y="201.01" width="2.27" height="24.45"/><rect class="cls-4" x="320.06" y="201.01" width="2.27" height="24.45"/><path class="cls-4" d="M328.3,226.63H280.46V199.85H328.3Zm-45.51-2.33H326V202.17H282.79Z"/><path class="cls-9" d="M327.14,209.91h19.58a5.3,5.3,0,0,1,5.3,5.3v0a5.3,5.3,0,0,1-5.3,5.3H327.14a0,0,0,0,1,0,0v-10.6A0,0,0,0,1,327.14,209.91Z"/><path class="cls-6" d="M327.14,217.2v3.32h19.58a5.32,5.32,0,0,0,4.92-3.32Z"/><path class="cls-4" d="M346.72,221.68H326V208.75h20.74a6.47,6.47,0,0,1,0,12.93Zm-18.42-2.33h18.42a4.14,4.14,0,0,0,0-8.27H328.3Z"/><path class="cls-9" d="M269.53,204h6.8a5.3,5.3,0,0,1,5.3,5.3v0a5.3,5.3,0,0,1-5.3,5.3h-6.8a1.4,1.4,0,0,1-1.4-1.4v-7.81a1.4,1.4,0,0,1,1.4-1.4Z" transform="translate(549.76 418.7) rotate(-180)"/><path class="cls-6" d="M268.57,211.47a5.31,5.31,0,0,0,4.86,3.18h6.8a1.4,1.4,0,0,0,1.4-1.4v-1.78Z"/><path class="cls-4" d="M280.23,215.81h-6.8a6.47,6.47,0,0,1,0-12.93h6.8a2.57,2.57,0,0,1,2.56,2.57v7.8A2.56,2.56,0,0,1,280.23,215.81Zm-6.8-10.6a4.14,4.14,0,1,0,0,8.28h6.8a.23.23,0,0,0,.23-.24v-7.8a.23.23,0,0,0-.23-.24Z"/><rect class="cls-9" x="338.96" y="203.6" width="5.75" height="5.75"/><rect class="cls-9" x="345.42" y="193.59" width="44.63" height="6.08" rx="3.04"/><rect class="cls-6" x="346.58" y="196.91" width="42.3" height="2.11"/><path class="cls-4" d="M387,200.83H348.45a4.21,4.21,0,0,1,0-8.41H387a4.21,4.21,0,1,1,0,8.41Zm-38.55-6.08a1.88,1.88,0,0,0,0,3.75H387a1.88,1.88,0,1,0,0-3.75Z"/><circle class="cls-9" cx="341.83" cy="196.63" r="8.06"/><path class="cls-4" d="M341.83,205.85a9.22,9.22,0,1,1,9.22-9.22A9.24,9.24,0,0,1,341.83,205.85Zm0-16.11a6.89,6.89,0,1,0,6.9,6.89A6.9,6.9,0,0,0,341.83,189.74Z"/><path class="cls-6" d="M341.83,201a4.32,4.32,0,1,0-4.31-4.32A4.32,4.32,0,0,0,341.83,201Z"/><path class="cls-8" d="M341.83,195a9.69,9.69,0,0,1,4.26.92,4.32,4.32,0,0,0-8.51,0A9.68,9.68,0,0,1,341.83,195Z"/><path class="cls-9" d="M423.33,131h-5.88a12.68,12.68,0,0,0-7.22,2.26,3,3,0,0,1-3.45,0,12.65,12.65,0,0,0-7.21-2.26h-5.89a3.88,3.88,0,0,0-3.94,3.53,3.74,3.74,0,0,0,3.73,3.94h30.07a3.73,3.73,0,0,0,3.73-3.94A3.87,3.87,0,0,0,423.33,131Z"/><path class="cls-6" d="M427.24,134.16a3.92,3.92,0,0,0-3.91-3.18h-5.88a12.68,12.68,0,0,0-7.22,2.26,3,3,0,0,1-3.45,0,12.65,12.65,0,0,0-7.21-2.26h-5.89a3.9,3.9,0,0,0-3.9,3.18Z"/><path class="cls-4" d="M423.54,139.62H393.47a4.91,4.91,0,0,1-4.89-5.17,5,5,0,0,1,5.1-4.64h5.89a13.75,13.75,0,0,1,7.87,2.47,1.85,1.85,0,0,0,2.13,0,13.78,13.78,0,0,1,7.88-2.47h5.88a5,5,0,0,1,5.1,4.64,4.86,4.86,0,0,1-1.33,3.64A4.93,4.93,0,0,1,423.54,139.62Zm-29.86-7.48a2.72,2.72,0,0,0-2.78,2.43,2.53,2.53,0,0,0,.7,1.91,2.57,2.57,0,0,0,1.87.81h30.07a2.56,2.56,0,0,0,1.87-.81,2.53,2.53,0,0,0,.7-1.91,2.72,2.72,0,0,0-2.78-2.43h-5.88a11.42,11.42,0,0,0-6.55,2.05,4.15,4.15,0,0,1-4.78,0,11.47,11.47,0,0,0-6.55-2.05Z"/><polygon class="cls-9" points="408.51 138.45 395.92 138.45 404.65 147.18 408.51 147.19 412.37 147.18 421.09 138.45 408.51 138.45"/><polygon class="cls-10" points="401.48 144.01 404.65 147.18 408.51 147.19 412.37 147.18 415.53 144.01 401.48 144.01"/><path class="cls-4" d="M408.51,148.35h-4.35l-11.05-11.05H423.9l-11,11.05ZM405.13,146h6.75l6.4-6.39H398.73Z"/><path class="cls-9" d="M258.34,351a4,4,0,0,1-4.38,4,30.24,30.24,0,0,1-18.41-8.85c-16-16.1-15.85-48.89-15.76-66.5v0a3.15,3.15,0,0,1,3.15-3.14h1.69a3.15,3.15,0,0,1,3.15,3.17v0c-.08,15.28-.24,47.08,13.44,60.82a22.1,22.1,0,0,0,13.54,6.53,4,4,0,0,1,3.58,4Z"/><path class="cls-6" d="M258.34,351a4,4,0,0,0-3.58-4,22.1,22.1,0,0,1-13.54-6.53C227.54,326.78,227.7,295,227.78,279.7v0a3.15,3.15,0,0,0-3.15-3.17h-.71C223.68,293.35,220.52,349.52,258.34,351Z"/><path class="cls-4" d="M254.4,356.2a5.65,5.65,0,0,1-.58,0,31.44,31.44,0,0,1-19.1-9.18c-16.36-16.44-16.19-49.54-16.1-67.32a4.34,4.34,0,0,1,4.32-4.33h1.69a4.32,4.32,0,0,1,4.32,4.34c-.08,15.16-.24,46.63,13.09,60a21,21,0,0,0,12.86,6.2,5.16,5.16,0,0,1,2.86,9A5.06,5.06,0,0,1,254.4,356.2Zm-31.46-78.55a2,2,0,0,0-2,2c-.09,17.48-.25,49.95,15.43,65.71a29.11,29.11,0,0,0,17.71,8.51,2.74,2.74,0,0,0,2.13-.68,2.84,2.84,0,0,0-1.6-5,23.23,23.23,0,0,1-14.23-6.87c-14-14.09-13.85-46.21-13.77-61.64a2,2,0,0,0-.58-1.46,2,2,0,0,0-1.41-.59Z"/><path class="cls-4" d="M376.25,257.69a2,2,0,0,1-1.69-.92l-15.67-24.56a2,2,0,1,1,3.37-2.15l15.67,24.56a2,2,0,0,1-1.68,3.07Z"/><circle class="cls-4" cx="376.25" cy="255.7" r="4.1"/><circle class="cls-4" cx="362.21" cy="262.73" r="4.1"/><circle class="cls-4" cx="243.49" cy="289.5" r="5.29"/><path class="cls-4" d="M362.21,264.73a2,2,0,0,1-.9-3.78l14-7a2,2,0,1,1,1.79,3.57l-14,7A2,2,0,0,1,362.21,264.73Z"/><circle class="cls-9" cx="362.21" cy="262.73" r="1.7"/><circle class="cls-9" cx="376.25" cy="255.7" r="1.7"/><circle class="cls-9" cx="243.45" cy="289.55" r="1.7"/><circle class="cls-4" cx="254.14" cy="350.9" r="0.95"/><circle class="cls-4" cx="223.56" cy="288.34" r="0.95"/><circle class="cls-4" cx="260.7" cy="221.51" r="0.95"/><rect class="cls-6" x="399.85" y="159.21" width="6.17" height="110.21"/><rect class="cls-10" x="413.33" y="159.21" width="3.41" height="110.21"/><rect class="cls-9" x="204.24" y="143.27" width="185.73" height="13.93" rx="6.96"/><rect class="cls-9" x="204.24" y="164.05" width="185.73" height="13.93" rx="6.96"/><path class="cls-6" d="M211.2,157.2h19v0a7,7,0,0,1,0-13.9h-19a7,7,0,0,0,0,13.93Z"/><path class="cls-6" d="M223.52,171a7,7,0,0,1,6.71-6.95h-19a7,7,0,0,0,0,13.93h19v0A7,7,0,0,1,223.52,171Z"/><path class="cls-6" d="M383,157.2H364v0a7,7,0,0,0,0-13.9h19a7,7,0,0,1,0,13.93Z"/><path class="cls-6" d="M370.69,171a7,7,0,0,0-6.71-6.95h19A7,7,0,0,1,383,178H364v0A7,7,0,0,0,370.69,171Z"/><path class="cls-11" d="M320.62,164.05H273A7,7,0,1,0,273,178h47.65a7,7,0,0,0,0-13.93Z"/><path class="cls-11" d="M273,157.2h47.65a7,7,0,0,0,0-13.93H273a7,7,0,1,0,0,13.93Z"/><path class="cls-9" d="M383,153.89H211.2a7,7,0,0,1-6.76-5.31,7,7,0,0,0,6.76,8.62H383a7,7,0,0,0,7-7,7.45,7.45,0,0,0-.2-1.65A7,7,0,0,1,383,153.89Z"/><path class="cls-9" d="M383,174H211.2a7,7,0,0,1-6.76-5.31,7,7,0,0,0,6.76,8.61H383a7,7,0,0,0,7-7,7.45,7.45,0,0,0-.2-1.65A7,7,0,0,1,383,174Z"/><path class="cls-4" d="M383,158.36H211.2a8.13,8.13,0,1,1,0-16.26H383a8.13,8.13,0,0,1,0,16.26ZM211.2,144.43a5.8,5.8,0,1,0,0,11.6H383a5.8,5.8,0,1,0,0-11.6Z"/><path class="cls-4" d="M383,179.14H211.2a8.13,8.13,0,0,1,0-16.26H383a8.13,8.13,0,0,1,0,16.26ZM211.2,165.21a5.8,5.8,0,1,0,0,11.6H383a5.8,5.8,0,1,0,0-11.6Z"/><path class="cls-4" d="M422.88,359.62H394.52V277h28.36Zm-26-2.32h23.7V279.35h-23.7Z"/><path class="cls-4" d="M419.05,279.35h-20.7V156.86h20.7ZM400.68,277h16V159.19h-16Z"/><rect class="cls-9" x="392.22" y="270.71" width="32.97" height="7.48" rx="3.74"/><path class="cls-6" d="M425,273.27a3.75,3.75,0,0,0-3.55-2.56H396a3.75,3.75,0,0,0-3.55,2.56Z"/><path class="cls-4" d="M421.45,279.35H396a4.9,4.9,0,1,1,0-9.8h25.5a4.9,4.9,0,1,1,0,9.8ZM396,271.87a2.58,2.58,0,0,0,0,5.15h25.5a2.58,2.58,0,0,0,0-5.15Z"/><path class="cls-6" d="M178.3,184.33a7.5,7.5,0,1,0,7.5,7.49A7.51,7.51,0,0,0,178.3,184.33Z"/><rect class="cls-8" x="179.02" y="186.12" width="2" height="13.79" transform="translate(149.53 -69.15) rotate(36.37)"/><rect class="cls-9" x="175.67" y="183.58" width="2" height="13.79" transform="translate(147.37 -67.66) rotate(36.37)"/><path class="cls-4" d="M178.3,182.8a9,9,0,1,0,9,9A9,9,0,0,0,178.3,182.8Zm-6.52,9a6.52,6.52,0,0,1,6.52-6.52,6.42,6.42,0,0,1,2.67.57l-7.54,10.29A6.51,6.51,0,0,1,171.78,191.82Zm6.52,6.53a6.57,6.57,0,0,1-2.89-.68l7.6-10.36a6.52,6.52,0,0,1-4.71,11Z"/><path class="cls-6" d="M202.89,282.41a6.23,6.23,0,1,0,6.23,6.22A6.24,6.24,0,0,0,202.89,282.41Z"/><rect class="cls-8" x="203.49" y="283.9" width="1.66" height="11.46" transform="translate(211.56 -64.74) rotate(36.37)"/><rect class="cls-9" x="200.71" y="281.78" width="1.66" height="11.46" transform="translate(209.76 -63.5) rotate(36.37)"/><path class="cls-4" d="M202.89,281.14a7.5,7.5,0,1,0,7.5,7.49A7.5,7.5,0,0,0,202.89,281.14Zm-5.42,7.49a5.43,5.43,0,0,1,5.42-5.42,5.33,5.33,0,0,1,2.22.48l-6.27,8.55A5.44,5.44,0,0,1,197.47,288.63Zm5.42,5.43a5.53,5.53,0,0,1-2.4-.56l6.32-8.61a5.43,5.43,0,0,1-3.92,9.17Z"/><path class="cls-4" d="M319.5,285.41a1.89,1.89,0,0,1-1.82-1.43v0a1.88,1.88,0,0,1,.85-2.15l.91-.52-1-1.8-1-1.8-.9.52a1.88,1.88,0,0,1-2.29-.33l0,0a1.88,1.88,0,0,1-.33-2.29l.52-.9-1.8-1-1.8-1-.52.91a1.88,1.88,0,0,1-2.15.85h0a1.89,1.89,0,0,1-1.43-1.82v-1h-4.15v1a1.89,1.89,0,0,1-1.44,1.82h0a1.87,1.87,0,0,1-2.14-.85l-.53-.91-1.79,1-1.8,1,.52.9a1.9,1.9,0,0,1-.33,2.29l0,0a1.87,1.87,0,0,1-2.28.33l-.91-.52-1,1.8-1,1.8.91.52a1.89,1.89,0,0,1,.86,2.15v0a1.89,1.89,0,0,1-1.81,1.43h-1.05v4.15h1.05a1.89,1.89,0,0,1,1.81,1.44v0a1.89,1.89,0,0,1-.86,2.14l-.91.53,1,1.79,1,1.8.91-.52a1.88,1.88,0,0,1,2.28.33l0,0a1.88,1.88,0,0,1,.33,2.28l-.52.91,1.8,1,1.79,1,.53-.9a1.89,1.89,0,0,1,2.14-.86h0a1.89,1.89,0,0,1,1.44,1.81v1.05h4.15v-1.05a1.89,1.89,0,0,1,1.43-1.81h0a1.89,1.89,0,0,1,2.15.86l.52.9,1.8-1,1.8-1-.52-.91a1.87,1.87,0,0,1,.33-2.28l0,0a1.9,1.9,0,0,1,2.29-.33l.9.52,1-1.8,1-1.79-.91-.53a1.87,1.87,0,0,1-.85-2.14v0a1.89,1.89,0,0,1,1.82-1.44h1.05v-4.15Zm-15,6.21a4.14,4.14,0,1,1,4.14-4.13A4.13,4.13,0,0,1,304.53,291.62Z"/><path class="cls-4" d="M377,347.54l-4.78-66.47a1.53,1.53,0,0,0-1.5-1.5h0a1.5,1.5,0,0,0-1.49,1.51v2.43l-5.14.35-.23-2.52a1.5,1.5,0,1,0-3,.27l.24,2.55c-1.72.2-3.42.46-5.1.74l-.47-2.56a1.5,1.5,0,1,0-2.95.53l.47,2.58c-1.69.34-3.36.74-5,1.17l-.7-2.56a1.5,1.5,0,1,0-2.89.78l.7,2.58q-2.49.72-4.9,1.58l-.93-2.52a1.5,1.5,0,0,0-2.81,1l.93,2.52c-1.6.63-3.19,1.28-4.75,2l-1.14-2.42a1.5,1.5,0,1,0-2.71,1.28l1.14,2.42c-1.55.76-3.06,1.56-4.55,2.39L324,293.38a1.5,1.5,0,0,0-2.59,1.51l1.34,2.3c-1.48.88-2.92,1.81-4.34,2.77l-1.52-2.16a1.5,1.5,0,0,0-2.45,1.73l1.52,2.15c-1.4,1-2.77,2-4.1,3.12l-1.67-2a1.5,1.5,0,0,0-2.29,1.94l1.67,2c-1.31,1.13-2.56,2.3-3.79,3.5L304,308.41a1.5,1.5,0,0,0-2.11,2.13l1.83,1.81c-1.19,1.25-2.35,2.52-3.46,3.82l-2-1.65a1.5,1.5,0,0,0-1.92,2.31l2,1.67c-1.07,1.35-2.08,2.74-3.05,4.14l-2.22-1.53a1.48,1.48,0,0,0-2.08.37,1.51,1.51,0,0,0,.38,2.09l2.27,1.58c-.92,1.45-1.8,2.92-2.61,4.42l-2.53-1.45a1.5,1.5,0,1,0-1.49,2.6l2.65,1.52a66.63,66.63,0,0,0-3.41,8.38l6,4.1s25.48-39.3,73.69-42.5l3.14,46Z"/><path class="cls-6" d="M304.53,290.11a2.63,2.63,0,1,0-2.62-2.62A2.62,2.62,0,0,0,304.53,290.11Z"/><path class="cls-4" d="M304.53,290.63a3.14,3.14,0,1,1,3.15-3.14A3.15,3.15,0,0,1,304.53,290.63Zm0-5.25a2.11,2.11,0,1,0,2.11,2.11A2.11,2.11,0,0,0,304.53,285.38Z"/><path class="cls-8" d="M304.53,288a1,1,0,1,0-1-1A1,1,0,0,0,304.53,288Z"/><path class="cls-9" d="M289.48,340.72l-1-.41c2.1-5.21,9.31-18.11,21.61-29.62,16.82-15.76,36.95-23.75,59.82-23.75V288c-22.58,0-42.46,7.89-59.08,23.46C298.66,322.87,291.54,335.59,289.48,340.72Z"/><path class="cls-9" d="M367.84,349.59l-4.61,8.87h47.35V354l-33.81-8.39A7.91,7.91,0,0,0,367.84,349.59Z"/><polygon class="cls-10" points="365.01 355.03 363.24 358.46 410.58 358.46 410.58 355.03 365.01 355.03"/><path class="cls-4" d="M411.74,359.62H361.32l5.49-10.57h0a9,9,0,0,1,10.24-4.62L411.74,353Zm-46.59-2.32h44.26v-2.44l-32.93-8.17a6.71,6.71,0,0,0-7.6,3.43Z"/><circle class="cls-4" cx="375.24" cy="351.89" r="3.58"/><path class="cls-12" d="M151.63,392.11l.19.63a21.28,21.28,0,0,0,14,13.95l.63.2a.68.68,0,0,1,0,1.29l-.63.2a21.3,21.3,0,0,0-14,13.95l-.19.64a.68.68,0,0,1-1.29,0l-.2-.64a21.31,21.31,0,0,0-13.95-13.95l-.64-.2a.68.68,0,0,1,0-1.29l.64-.2a21.29,21.29,0,0,0,13.95-13.95l.2-.63A.68.68,0,0,1,151.63,392.11Z"/><path class="cls-1" d="M150.34,423a.68.68,0,0,0,1.29,0l.19-.64a21.3,21.3,0,0,1,14-13.95l.63-.2a.67.67,0,0,0,.47-.58H135.09a.64.64,0,0,0,.46.58l.64.2a21.31,21.31,0,0,1,13.95,13.95Z"/><path class="cls-3" d="M150.34,423a.68.68,0,0,0,1.29,0l.19-.64a21.3,21.3,0,0,1,14-13.95l.63-.2a.67.67,0,0,0,.47-.58H135.09a.64.64,0,0,0,.46.58l.64.2a21.31,21.31,0,0,1,13.95,13.95Z"/><path class="cls-12" d="M439.77,392.11l.19.63a21.28,21.28,0,0,0,14,13.95l.63.2a.68.68,0,0,1,0,1.29l-.63.2a21.3,21.3,0,0,0-14,13.95l-.19.64a.68.68,0,0,1-1.29,0l-.2-.64a21.31,21.31,0,0,0-13.95-13.95l-.64-.2a.68.68,0,0,1,0-1.29l.64-.2a21.29,21.29,0,0,0,13.95-13.95l.2-.63A.68.68,0,0,1,439.77,392.11Z"/><path class="cls-1" d="M438.48,423a.68.68,0,0,0,1.29,0l.19-.64a21.3,21.3,0,0,1,14-13.95l.63-.2a.67.67,0,0,0,.47-.58H423.23a.64.64,0,0,0,.46.58l.64.2a21.31,21.31,0,0,1,13.95,13.95Z"/><path class="cls-3" d="M438.48,423a.68.68,0,0,0,1.29,0l.19-.64a21.3,21.3,0,0,1,14-13.95l.63-.2a.67.67,0,0,0,.47-.58H423.23a.64.64,0,0,0,.46.58l.64.2a21.31,21.31,0,0,1,13.95,13.95Z"/></svg>